<svg width="24" height="24" viewBox="0 0 24 24" fill="none" xmlns="http://www.w3.org/2000/svg">
<path fill-rule="evenodd" clip-rule="evenodd" d="M12.8965 5.25191C13.068 5.2778 13.2547 5.21208 13.2981 5.0442C13.3132 4.98588 13.3211 4.9257 13.3211 4.86418C13.3211 4.33162 12.7296 3.8999 11.9999 3.8999C11.2702 3.8999 10.6787 4.33162 10.6787 4.86418C10.6787 4.92567 10.6866 4.98581 10.7017 5.04411C10.7451 5.212 10.9318 5.27773 11.1033 5.25185C11.3927 5.20817 11.6925 5.18521 11.9997 5.18521C12.307 5.18521 12.607 5.20818 12.8965 5.25191ZM6 15.0005C6 14.5542 6.2924 14.1761 6.69608 14.0475C6.73056 14.0365 6.76255 14.0238 6.79385 14.0056C6.917 13.9342 7 13.8047 7 13.6623V11.0005C7 8.23906 9.23858 6.00049 12 6.00049C14.7614 6.00049 17 8.23906 17 11.0005V13.6623C17 13.8047 17.083 13.9342 17.2061 14.0056C17.2374 14.0238 17.2694 14.0365 17.3039 14.0475C17.7076 14.1761 18 14.5542 18 15.0005V16.0005C18 16.4149 17.7479 16.7704 17.3887 16.9221L17.3397 16.9426C17.2672 16.9728 17.1948 17.0029 17.126 17.0405C16.0726 17.6162 14.1709 18.0005 12 18.0005C9.82906 18.0005 7.92742 17.6162 6.874 17.0405C6.80516 17.0029 6.73276 16.9728 6.66033 16.9426L6.66032 16.9426L6.61127 16.9221C6.25208 16.7704 6 16.4149 6 16.0005V15.0005ZM9.97791 19.4524C9.87643 19.159 10.1484 18.9064 10.4576 18.9338C10.9498 18.9773 11.4668 19.0005 12 19.0005C12.4902 19.0005 12.9666 18.9809 13.4226 18.9439C13.7319 18.9189 14.0017 19.1732 13.8983 19.4657C13.6131 20.2721 12.8442 20.8498 11.9404 20.8498C11.0317 20.8498 10.2593 20.2657 9.97791 19.4524Z" fill="#657D9E"/>
</svg>
