<svg width="24" height="24" viewBox="0 0 24 24" fill="none" xmlns="http://www.w3.org/2000/svg">
<path fill-rule="evenodd" clip-rule="evenodd" d="M10.2588 14.2729H11.9464C14.7485 14.2729 17.02 11.9732 17.02 9.13649C17.02 6.29975 14.7485 4.00012 11.9464 4.00012H9.07365C6.27155 4.00012 4 6.29975 4 9.13649C4 10.8541 4.83515 12.372 6.11446 13.3041C6.25121 13.4038 6.33787 13.5601 6.33787 13.7293V16.0339C6.33787 16.4305 6.78541 16.657 7.09887 16.4189L9.6586 14.4753C9.83179 14.3439 10.0422 14.2729 10.2588 14.2729ZM11.2598 9.05012C11.2598 9.46434 10.924 9.80012 10.5098 9.80012C10.0956 9.80012 9.75977 9.46434 9.75977 9.05012C9.75977 8.63591 10.0956 8.30012 10.5098 8.30012C10.924 8.30012 11.2598 8.63591 11.2598 9.05012ZM13.5098 9.80012C13.924 9.80012 14.2598 9.46434 14.2598 9.05012C14.2598 8.63591 13.924 8.30012 13.5098 8.30012C13.0956 8.30012 12.7598 8.63591 12.7598 9.05012C12.7598 9.46434 13.0956 9.80012 13.5098 9.80012ZM8.25977 9.05012C8.25977 9.46434 7.92398 9.80012 7.50977 9.80012C7.09555 9.80012 6.75977 9.46434 6.75977 9.05012C6.75977 8.63591 7.09555 8.30012 7.50977 8.30012C7.92398 8.30012 8.25977 8.63591 8.25977 9.05012ZM17.7206 8.25314C17.6913 8.15108 17.6592 8.05063 17.6244 7.95185C17.4577 7.47938 17.9055 6.96421 18.2984 7.27519C19.1136 7.92056 19.7436 8.82074 20.0536 9.90161C20.527 11.5527 20.1426 13.2419 19.1694 14.4908C19.0654 14.6242 19.0251 14.7984 19.0718 14.9611L19.707 17.1764C19.8163 17.5576 19.449 17.8986 19.0822 17.7565L16.0853 16.5934C15.883 16.5147 15.6608 16.5046 15.4525 16.5643L13.8308 17.0293C13.0887 17.2421 12.3382 17.2745 11.6229 17.1542C11.2832 17.0971 11.1539 16.7008 11.3602 16.4249L12.1159 15.4142C12.2466 15.24 12.4293 15.1138 12.6375 15.0541L14.2593 14.589C16.9528 13.8167 18.5025 10.98 17.7206 8.25314Z" fill="#657D9E"/>
</svg>
