<?xml version="1.0" encoding="utf-8"?>
<!-- Generator: Adobe Illustrator 22.1.0, SVG Export Plug-In . SVG Version: 6.00 Build 0)  -->
<svg version="1.1" id="Layer_1" xmlns="http://www.w3.org/2000/svg" xmlns:xlink="http://www.w3.org/1999/xlink" x="0px" y="0px"
	 viewBox="0 0 137.4 107" style="enable-background:new 0 0 137.4 107;" xml:space="preserve">
<style type="text/css">
	.st0{fill:#FFA02B;}
	.st1{fill:#FFA12B;}
	.st2{opacity:0.3;fill:#FFBE6E;}
</style>
<title>Asset 3</title>
<g>
	<path class="st0" d="M65.3,20.6h5.4c-0.6-4.8-0.6-9.6,0-14.4h-5.4C65.9,11,65.9,15.8,65.3,20.6z"/>
	<path class="st0" d="M48.8,26.5l4.7-2.7c-2.9-3.8-5.3-8-7.2-12.5l-4.7,2.7C44.6,17.9,47,22.1,48.8,26.5z"/>
	<path class="st0" d="M37.5,39.8l2.7-4.7c-4.5-1.9-8.6-4.3-12.5-7.2L25,32.6C29.5,34.5,33.6,36.9,37.5,39.8z"/>
	<path class="st0" d="M34.3,57.1l0-5.4c-4.8,0.6-9.6,0.6-14.4,0l0,5.4C24.8,56.5,29.5,56.5,34.3,57.1z"/>
	<path class="st0" d="M40.2,73.6l-2.7-4.7c-3.9,2.9-8,5.3-12.5,7.2l2.7,4.7C31.6,77.8,35.8,75.4,40.2,73.6z"/>
	<path class="st0" d="M53.6,84.9l-4.7-2.7c-1.9,4.4-4.3,8.6-7.2,12.5l4.7,2.7C48.2,92.9,50.6,88.8,53.6,84.9z"/>
	<path class="st0" d="M70.8,88.1l-5.4,0c0.6,4.8,0.6,9.6,0,14.4l5.4,0C70.2,97.6,70.2,92.9,70.8,88.1z"/>
	<path class="st0" d="M87.3,82.2l-4.7,2.7c2.9,3.8,5.3,8,7.2,12.4l4.7-2.7C91.5,90.8,89.1,86.6,87.3,82.2z"/>
	<path class="st0" d="M98.6,68.8l-2.7,4.7c4.5,1.9,8.6,4.3,12.5,7.2l2.7-4.7C106.6,74.2,102.5,71.8,98.6,68.8z"/>
	<path class="st0" d="M101.8,51.6l0,5.4c4.8-0.6,9.6-0.6,14.4,0v-5.4C111.4,52.2,106.6,52.2,101.8,51.6z"/>
	<path class="st0" d="M95.9,35.1l2.7,4.7c3.8-2.9,8-5.3,12.5-7.2l-2.7-4.7C104.5,30.9,100.3,33.3,95.9,35.1z"/>
	<path class="st0" d="M82.6,23.8l4.7,2.7c1.9-4.5,4.3-8.6,7.2-12.5l-4.7-2.7C87.9,15.8,85.5,19.9,82.6,23.8z"/>
	<path class="st0" d="M106.3,54.3c0,21.1-17.1,38.3-38.3,38.3c-21.1,0-38.3-17.1-38.3-38.3c0-21.1,17.1-38.3,38.3-38.3
		C89.2,16.1,106.3,33.2,106.3,54.3z"/>
	<path class="st0" d="M106.3,54.3c0,4.6-0.8,9-2.3,13.1c-0.9,2.6-2.1,5-3.6,7.3C95.7,82.2,88.5,87.9,80,90.7
		c-3.7,1.2-7.8,1.9-11.9,1.9c-21.1,0-38.3-17.1-38.3-38.3c0-4.2,0.7-8.2,1.9-11.9c2.8-8.5,8.5-15.7,15.9-20.4
		c2.3-1.5,4.8-2.7,7.3-3.6c4.1-1.5,8.5-2.3,13.1-2.3C89.2,16.1,106.3,33.2,106.3,54.3z"/>
	<path class="st1" d="M81.9,78.8c0,4.2-0.7,8.2-1.9,11.9c-3.7,1.2-7.8,1.9-11.9,1.9c-21.1,0-38.3-17.1-38.3-38.3
		c0-4.2,0.7-8.2,1.9-11.9c3.7-1.2,7.8-1.9,11.9-1.9C64.7,40.5,81.9,57.6,81.9,78.8z"/>
	<path class="st2" d="M106.3,54.3c0,4.6-0.8,9-2.3,13.1c-0.9,2.6-2.1,5-3.6,7.3c-5.9,3.7-12.9,5.9-20.4,5.9
		c-21.1,0-38.3-17.1-38.3-38.3c0-7.5,2.2-14.5,5.9-20.4c2.3-1.5,4.8-2.7,7.3-3.6c4.1-1.5,8.5-2.3,13.1-2.3
		C89.2,16.1,106.3,33.2,106.3,54.3z"/>
	<path class="st2" d="M76.8,32.4c0,1.6-1.3,2.9-2.9,2.9s-2.9-1.3-2.9-2.9c0-1.6,1.3-2.9,2.9-2.9S76.8,30.8,76.8,32.4z"/>
	<path class="st1" d="M98.7,60.7c0,1.7-1.4,3.2-3.2,3.2s-3.2-1.4-3.2-3.2c0-1.7,1.4-3.2,3.2-3.2S98.7,58.9,98.7,60.7z"/>
	<path class="st1" d="M48.3,51.8c0,3.1-2.5,5.7-5.7,5.7c-3.1,0-5.7-2.5-5.7-5.7c0-3.1,2.5-5.7,5.7-5.7
		C45.8,46.1,48.3,48.7,48.3,51.8z"/>
	<path class="st1" d="M80.6,44.2c0,2.4-2,4.4-4.4,4.4c-2.4,0-4.4-2-4.4-4.4c0-2.4,2-4.4,4.4-4.4C78.6,39.8,80.6,41.8,80.6,44.2z"/>
	<path class="st1" d="M86.5,77.1c0,1.3-1,2.3-2.3,2.3c-1.3,0-2.3-1-2.3-2.3c0-1.3,1-2.3,2.3-2.3C85.4,74.8,86.5,75.8,86.5,77.1z"/>
	<path class="st2" d="M58.4,34.3c0,2.8-2.3,5.1-5.1,5.1c-2.8,0-5.1-2.3-5.1-5.1s2.3-5.1,5.1-5.1C56.2,29.3,58.4,31.5,58.4,34.3z"/>
	<circle class="st1" cx="65.6" cy="25.3" r="2.1"/>
	<path class="st1" d="M94.7,36.4c0,1.2-1,2.2-2.2,2.2c-1.2,0-2.2-1-2.2-2.2c0-1.2,1-2.2,2.2-2.2C93.7,34.2,94.7,35.1,94.7,36.4z"/>
	<path class="st2" d="M63.9,75.2c0,2.8-2.3,5.1-5.1,5.1c-2.8,0-5.1-2.3-5.1-5.1c0-2.8,2.3-5.1,5.1-5.1
		C61.7,70.1,63.9,72.4,63.9,75.2z"/>
	<path class="st2" d="M100.6,44.2c0,1.3-1.1,2.4-2.4,2.4c-1.3,0-2.4-1.1-2.4-2.4c0-1.3,1.1-2.4,2.4-2.4
		C99.6,41.8,100.6,42.9,100.6,44.2z"/>
</g>
</svg>
