<?xml version="1.0" encoding="utf-8"?>
<!-- Generator: Adobe Illustrator 22.1.0, SVG Export Plug-In . SVG Version: 6.00 Build 0)  -->
<svg version="1.1" id="Layer_1" xmlns="http://www.w3.org/2000/svg" xmlns:xlink="http://www.w3.org/1999/xlink" x="0px" y="0px"
	 viewBox="0 0 82.7 65.2" style="enable-background:new 0 0 82.7 65.2;" xml:space="preserve">
<style type="text/css">
	.st0{fill:#A90048;}
	.st1{opacity:0.6;fill:#94003F;}
	.st2{opacity:0.3;fill:#BABABA;}
	.st3{fill:#94003F;}
	.st4{opacity:0.6;}
	.st5{opacity:0.4;fill:#4A001F;}
</style>
<title>Asset 2</title>
<g>
	<g>
		<path class="st0" d="M44.8,11c0,0,0-0.2,0-0.4c0-0.1,0-0.3,0-0.5c0-0.2,0.1-0.4,0-0.6c0-0.2,0-0.5,0-0.7c0-0.3,0-0.5-0.1-0.8
			c0-0.3,0-0.6-0.1-0.9c-0.1-0.3-0.1-0.6-0.2-0.9c-0.1-0.3-0.2-0.6-0.3-0.9c-0.1-0.3-0.2-0.6-0.3-0.8c-0.1-0.3-0.2-0.5-0.4-0.8
			c-0.1-0.2-0.2-0.5-0.4-0.7c-0.2-0.4-0.4-0.8-0.6-1c-0.1-0.2-0.2-0.4-0.2-0.4c0,0,0-0.1,0-0.1c0,0,0.1,0,0.1,0c0,0,0.1,0.1,0.3,0.4
			c0.2,0.2,0.4,0.5,0.7,1c0.1,0.2,0.3,0.4,0.4,0.7c0.2,0.2,0.3,0.5,0.4,0.8c0.1,0.3,0.3,0.5,0.4,0.8c0.1,0.3,0.2,0.6,0.4,0.9
			c0.1,0.3,0.2,0.6,0.3,0.9c0.1,0.3,0.1,0.6,0.2,0.9c0.1,0.3,0.1,0.6,0.1,0.9c0,0.3,0,0.6,0.1,0.8c0,0.3,0,0.5,0,0.7
			c0,0.2,0,0.4,0,0.5c0,0.3,0,0.4,0,0.4c0,0.3-0.2,0.5-0.5,0.5C45.1,11.5,44.8,11.3,44.8,11C44.8,11,44.8,11,44.8,11z"/>
		<path class="st0" d="M47.9,10.2c0,0,0-0.1,0.1-0.4c0-0.2,0.1-0.6,0.2-1c0.2-0.8,0.5-1.9,0.9-3c0.1-0.3,0.2-0.5,0.4-0.8
			c0.1-0.3,0.3-0.5,0.4-0.7c0.1-0.2,0.3-0.4,0.5-0.6c0.2-0.2,0.3-0.3,0.5-0.5C51,3.1,51.2,3,51.4,3c0.2-0.1,0.3-0.1,0.4-0.1
			c0.3,0,0.4-0.1,0.4-0.1c0,0,0.1,0,0.1,0c0,0,0,0.1,0,0.1l0,0c0,0-0.1,0-0.4,0.1c-0.1,0-0.2,0.1-0.4,0.2c-0.2,0.1-0.3,0.2-0.5,0.3
			c-0.2,0.1-0.3,0.3-0.4,0.5c-0.1,0.2-0.3,0.4-0.4,0.6C50,4.8,49.9,5,49.8,5.2c-0.1,0.2-0.2,0.5-0.3,0.8c-0.3,1.1-0.5,2.1-0.6,3
			c0,0.4-0.1,0.8-0.1,1c0,0.2,0,0.4,0,0.4c0,0.3-0.2,0.5-0.5,0.4C48.1,10.8,47.9,10.5,47.9,10.2C47.9,10.3,47.9,10.3,47.9,10.2z"/>
		<path class="st0" d="M52.7,13.2c0,0,0.2-0.1,0.5-0.3c0.2-0.1,0.4-0.2,0.6-0.3c0.1-0.1,0.2-0.1,0.4-0.2c0.1-0.1,0.3-0.1,0.5-0.2
			c0.3-0.1,0.7-0.3,1-0.4c0.4-0.1,0.7-0.2,1.1-0.3c0.4-0.1,0.8-0.2,1.2-0.3c0.4-0.1,0.9-0.2,1.3-0.2c0.4-0.1,0.9-0.1,1.3-0.2
			c0.4-0.1,0.8-0.1,1.2-0.1c0.8-0.1,1.6-0.1,2.2-0.1c1.3,0,2.2-0.1,2.2-0.1c0,0,0.1,0,0.1,0.1c0,0,0,0.1-0.1,0.1
			c0,0-0.9,0.1-2.1,0.2c-0.6,0.1-1.4,0.1-2.2,0.3c-0.4,0.1-0.8,0.1-1.2,0.2c-0.4,0.1-0.8,0.2-1.3,0.2c-0.4,0.1-0.8,0.2-1.2,0.3
			c-0.4,0.1-0.8,0.2-1.2,0.4c-0.4,0.1-0.8,0.2-1.1,0.4c-0.3,0.1-0.6,0.3-0.9,0.4c-0.1,0.1-0.3,0.1-0.4,0.2c-0.1,0.1-0.2,0.2-0.4,0.2
			c-0.2,0.1-0.4,0.3-0.6,0.4c-0.3,0.2-0.5,0.3-0.5,0.3c-0.2,0.1-0.5,0.1-0.6-0.2C52.4,13.6,52.5,13.3,52.7,13.2
			C52.7,13.2,52.7,13.2,52.7,13.2z"/>
		<path class="st0" d="M57.6,19.1c0,0,0.8,0,2,0.1c0.6,0,1.3,0,2.1,0.1c0.8,0,1.6,0.1,2.4,0.2c0.4,0.1,0.8,0.1,1.2,0.2
			c0.4,0,0.8,0.1,1.2,0.2c0.4,0.1,0.7,0.1,1.1,0.3c0.3,0.1,0.7,0.2,0.9,0.3c0.1,0,0.3,0.1,0.4,0.1c0.1,0.1,0.2,0.1,0.4,0.2
			c0.2,0.1,0.4,0.2,0.6,0.3c0.3,0.2,0.5,0.2,0.5,0.2c0,0,0,0,0,0.1c0,0,0,0-0.1,0l0,0c0,0-0.2-0.1-0.5-0.2c-0.2-0.1-0.4-0.1-0.6-0.2
			c-0.1,0-0.2-0.1-0.4-0.1c-0.1,0-0.3-0.1-0.4-0.1c-0.3-0.1-0.6-0.2-0.9-0.2c-0.3-0.1-0.7-0.1-1.1-0.2C66,20.1,65.6,20,65.2,20
			c-0.4,0-0.8-0.1-1.2-0.1c-0.8,0-1.6,0-2.4,0c-0.8,0-1.5,0-2.1,0.1c-1.2,0-2,0.1-2,0.1c-0.3,0-0.5-0.2-0.5-0.5
			C57.1,19.3,57.3,19.1,57.6,19.1C57.5,19.1,57.6,19.1,57.6,19.1z"/>
		<path class="st0" d="M40.3,9.6c0,0-0.1-0.2-0.2-0.5c-0.1-0.2-0.2-0.4-0.3-0.6c-0.1-0.1-0.1-0.2-0.2-0.3c-0.1-0.1-0.2-0.2-0.2-0.4
			C39.2,7.5,39,7.2,38.8,7c-0.2-0.3-0.5-0.5-0.8-0.8c-0.3-0.3-0.6-0.5-0.9-0.8c-0.3-0.3-0.7-0.5-1-0.8c-1.4-1-2.9-1.8-4-2.4
			c-1.1-0.6-1.8-1.1-1.8-1.1c0,0,0,0,0-0.1c0,0,0,0,0.1,0c0,0,0.8,0.4,1.9,0.9c1.1,0.6,2.7,1.3,4.2,2.2c0.4,0.2,0.7,0.5,1.1,0.7
			c0.4,0.2,0.7,0.5,1,0.8c0.3,0.3,0.6,0.5,0.9,0.8C39.6,6.8,39.8,7,40,7.3c0.1,0.1,0.2,0.3,0.3,0.4c0.1,0.1,0.2,0.3,0.2,0.4
			c0.1,0.2,0.3,0.5,0.3,0.6C41,9,41.1,9.2,41.1,9.2c0.1,0.2,0,0.5-0.2,0.6C40.6,9.9,40.4,9.8,40.3,9.6C40.3,9.6,40.3,9.6,40.3,9.6z"
			/>
		<path class="st0" d="M35,13.3c0,0-0.1-0.2-0.3-0.5c-0.1-0.2-0.2-0.3-0.3-0.5c-0.1-0.2-0.3-0.5-0.5-0.7c-0.2-0.2-0.4-0.5-0.6-0.7
			c-0.2-0.3-0.5-0.5-0.7-0.8c-0.3-0.3-0.5-0.6-0.8-0.8c-0.3-0.3-0.6-0.5-0.9-0.8c-0.3-0.2-0.6-0.5-1-0.7c-0.3-0.2-0.7-0.4-1-0.6
			C28.6,7,28.3,6.8,28,6.6c-0.3-0.2-0.6-0.3-0.8-0.5c-1.1-0.6-1.8-1-1.8-1c0,0,0,0,0-0.1c0,0,0,0,0.1,0c0,0,0.7,0.4,1.8,0.9
			c0.3,0.1,0.6,0.3,0.9,0.5c0.3,0.2,0.6,0.3,1,0.5c0.3,0.2,0.7,0.4,1,0.6c0.3,0.2,0.7,0.4,1,0.7c0.3,0.2,0.7,0.5,1,0.7
			c0.3,0.2,0.6,0.5,0.9,0.8c0.3,0.3,0.6,0.5,0.8,0.8c0.2,0.3,0.5,0.5,0.7,0.8c0.2,0.2,0.4,0.5,0.5,0.7c0.1,0.2,0.3,0.4,0.4,0.5
			c0.2,0.3,0.3,0.5,0.3,0.5c0.1,0.2,0.1,0.5-0.1,0.7C35.5,13.6,35.2,13.6,35,13.3C35,13.4,35,13.4,35,13.3z"/>
		<path class="st0" d="M58.3,26c0,0,0.6,0.2,1.6,0.5c1,0.3,2.2,0.7,3.5,1.2c0.6,0.3,1.2,0.5,1.8,0.8c0.6,0.3,1.1,0.6,1.5,0.9
			c0.2,0.1,0.4,0.3,0.5,0.4c0.2,0.1,0.3,0.3,0.4,0.4c0.2,0.2,0.3,0.3,0.3,0.3c0,0,0,0.1,0,0.1c0,0-0.1,0-0.1,0l0,0
			c0,0-0.1-0.1-0.3-0.3c-0.1-0.1-0.2-0.2-0.4-0.3c-0.2-0.1-0.3-0.3-0.6-0.4c-0.4-0.3-0.9-0.5-1.5-0.8c-0.6-0.2-1.2-0.5-1.8-0.7
			c-1.3-0.4-2.6-0.7-3.5-0.9c-1-0.2-1.6-0.4-1.6-0.4l0,0c-0.2-0.1-0.4-0.3-0.3-0.6C57.8,26,58,25.9,58.3,26
			C58.3,25.9,58.3,26,58.3,26z"/>
		<path class="st0" d="M58.2,34.7c0,0,0.2,0,0.5,0c0.1,0,0.3,0,0.5,0c0.2,0,0.4,0,0.7,0.1c0.3,0,0.5,0.1,0.8,0.2
			c0.3,0,0.6,0.1,0.9,0.2c0.3,0.1,0.6,0.2,0.9,0.3c0.3,0.1,0.6,0.2,1,0.3c1.3,0.5,2.5,0.9,3.4,1.3c0.9,0.3,1.6,0.5,1.6,0.5
			c0,0,0,0,0,0.1c0,0,0,0-0.1,0c0,0-0.6-0.2-1.6-0.4c-1-0.3-2.2-0.7-3.5-1c-0.3-0.1-0.6-0.2-1-0.2c-0.3-0.1-0.6-0.1-0.9-0.2
			c-0.3-0.1-0.6-0.1-0.9-0.1c-0.3,0-0.5-0.1-0.8-0.1c-0.2,0-0.5,0-0.7,0c-0.2,0-0.4,0-0.5,0c-0.3,0-0.5,0-0.5,0
			c-0.3,0-0.5-0.2-0.5-0.5C57.7,34.9,57.9,34.7,58.2,34.7C58.2,34.7,58.2,34.7,58.2,34.7z"/>
		<path class="st0" d="M55.2,41.1c0,0,0,0,0.1,0.1c0,0.1,0.1,0.2,0.2,0.3c0.1,0.1,0.2,0.3,0.3,0.4c0.1,0.2,0.3,0.4,0.5,0.5
			c0.4,0.4,0.9,0.8,1.6,1.1c0.6,0.4,1.3,0.7,2,1c0.4,0.2,0.7,0.3,1.1,0.5c0.4,0.2,0.7,0.3,1,0.5c0.3,0.2,0.6,0.3,0.9,0.5
			c0.3,0.2,0.6,0.4,0.8,0.6c0.9,0.7,1.5,1.2,1.5,1.2c0,0,0,0.1,0,0.1c0,0-0.1,0-0.1,0c0,0-0.6-0.5-1.6-1.1c-0.2-0.2-0.5-0.3-0.8-0.5
			c-0.3-0.2-0.6-0.3-0.9-0.5c-0.3-0.1-0.7-0.3-1-0.4c-0.4-0.1-0.7-0.3-1.1-0.4c-0.7-0.3-1.5-0.6-2.2-0.9c-0.7-0.3-1.3-0.7-1.8-1.1
			c-0.2-0.2-0.5-0.4-0.6-0.6c-0.2-0.2-0.3-0.4-0.4-0.6c-0.1-0.2-0.2-0.3-0.2-0.3c0-0.1-0.1-0.1-0.1-0.1c-0.1-0.2-0.1-0.5,0.2-0.6
			C54.7,40.8,55,40.8,55.2,41.1C55.2,41.1,55.2,41.1,55.2,41.1z"/>
		<path class="st0" d="M51.8,47.6c0,0,0.1,0.1,0.4,0.4c0.1,0.1,0.3,0.3,0.4,0.5c0.2,0.2,0.3,0.4,0.5,0.6c0.2,0.2,0.4,0.5,0.6,0.8
			c0.2,0.3,0.4,0.6,0.6,0.9c0.2,0.3,0.4,0.7,0.5,1c0.2,0.4,0.3,0.7,0.4,1.1c0.1,0.4,0.2,0.8,0.3,1.2c0.1,0.4,0.2,0.7,0.3,1.1
			c0.1,0.4,0.2,0.7,0.3,1c0.1,0.2,0.1,0.3,0.2,0.4c0.1,0.1,0.2,0.3,0.2,0.4c0.1,0.3,0.3,0.5,0.4,0.7c0.1,0.2,0.3,0.4,0.4,0.5
			c0.2,0.3,0.4,0.4,0.4,0.4l0,0c0,0,0,0.1,0,0.1c0,0-0.1,0-0.1,0c0,0-0.1-0.1-0.4-0.4c-0.1-0.1-0.3-0.3-0.4-0.5
			c-0.2-0.2-0.3-0.4-0.5-0.6c-0.1-0.1-0.2-0.3-0.3-0.4c-0.1-0.1-0.2-0.3-0.2-0.4c-0.2-0.3-0.3-0.6-0.4-1c-0.1-0.4-0.2-0.7-0.4-1.1
			c-0.1-0.4-0.2-0.7-0.4-1.1c-0.1-0.4-0.3-0.7-0.5-1c-0.2-0.3-0.4-0.7-0.6-0.9c-0.2-0.3-0.4-0.6-0.6-0.8c-0.2-0.3-0.4-0.5-0.6-0.7
			c-0.2-0.2-0.4-0.4-0.5-0.6c-0.2-0.2-0.3-0.3-0.4-0.4c-0.2-0.2-0.4-0.4-0.4-0.4c-0.2-0.2-0.2-0.5,0-0.7S51.6,47.4,51.8,47.6
			C51.8,47.5,51.8,47.6,51.8,47.6z"/>
		<path class="st0" d="M50.1,48.9c0,0,0,0.2,0,0.5c0,0.3,0,0.7,0.1,1.2c0,0.5,0.1,1.1,0.1,1.8c0,0.3,0,0.7,0,1
			c-0.1,0.3-0.1,0.7-0.2,1.1l-0.1,0.5c0,0.2-0.1,0.3-0.1,0.5c-0.1,0.3-0.2,0.6-0.2,1c-0.1,0.6-0.2,1.2-0.2,1.7c0,0.3,0,0.5,0,0.7
			c0,0.2,0,0.4,0.1,0.5c0.1,0.3,0.1,0.4,0.1,0.4l0,0c0,0,0,0.1,0,0.1c0,0-0.1,0-0.1,0c0,0-0.1-0.2-0.2-0.5c0-0.1-0.1-0.3-0.1-0.5
			c0-0.2,0-0.5-0.1-0.7c0-0.5,0-1.1,0.1-1.8c0-0.3,0.1-0.7,0.2-1c0-0.2,0.1-0.3,0.1-0.5l0.1-0.5c0.1-0.3,0.1-0.7,0.1-1
			c0-0.3,0-0.7,0-1c0-0.6-0.1-1.2-0.2-1.7c-0.1-0.5-0.1-1-0.2-1.3c0-0.3,0-0.5,0-0.5c0-0.3,0.2-0.5,0.4-0.5
			C49.8,48.5,50,48.7,50.1,48.9C50.1,48.9,50.1,48.9,50.1,48.9z"/>
		<path class="st0" d="M19.8,33.7c0,0-0.2,0-0.5-0.1c-0.2,0-0.3-0.1-0.5-0.1c-0.2,0-0.4-0.1-0.7-0.1c-0.5,0-1.1,0-1.8,0
			c-0.3,0-0.7,0.1-1,0.1c-0.3,0-0.7,0.1-1,0.2c-0.3,0.1-0.7,0.2-1,0.3c-0.3,0.1-0.6,0.2-1,0.4c-0.6,0.3-1.2,0.5-1.6,0.8
			c-0.2,0.1-0.4,0.3-0.6,0.4c-0.2,0.1-0.3,0.2-0.5,0.3c-0.2,0.2-0.4,0.3-0.4,0.3l0,0c0,0-0.1,0-0.1,0c0,0,0-0.1,0-0.1
			c0,0,0.1-0.1,0.4-0.3c0.1-0.1,0.3-0.2,0.4-0.4c0.2-0.1,0.4-0.3,0.6-0.4c0.4-0.3,1-0.6,1.6-0.9c0.3-0.1,0.6-0.3,1-0.4
			c0.3-0.1,0.7-0.3,1-0.4c0.3-0.1,0.7-0.2,1-0.3c0.3-0.1,0.7-0.2,1-0.2c0.7-0.1,1.3-0.2,1.9-0.2c0.3,0,0.5,0,0.8,0
			c0.2,0,0.4,0,0.6,0.1c0.3,0,0.5,0.1,0.5,0.1c0.3,0,0.4,0.3,0.4,0.5C20.3,33.6,20.1,33.8,19.8,33.7C19.8,33.7,19.8,33.7,19.8,33.7z
			"/>
		<path class="st0" d="M22.8,37.2c0,0,0,0-0.1,0c-0.1,0-0.2-0.1-0.3-0.1c-0.1,0-0.2,0-0.4,0c-0.2,0-0.4,0-0.6,0.1
			c-0.2,0.1-0.5,0.1-0.8,0.3c-0.3,0.1-0.6,0.2-0.8,0.4c-0.6,0.3-1.2,0.7-1.8,1.1c-0.6,0.4-1.2,0.8-1.8,1.1c-0.6,0.3-1.2,0.5-1.7,0.7
			c-0.2,0.1-0.5,0.2-0.6,0.3c-0.2,0.1-0.3,0.2-0.5,0.3c-0.2,0.2-0.4,0.3-0.4,0.3l0,0c0,0-0.1,0-0.1,0c0,0,0-0.1,0-0.1
			c0,0,0.1-0.1,0.4-0.3c0.1-0.1,0.3-0.2,0.5-0.3c0.2-0.1,0.4-0.3,0.6-0.4c0.5-0.3,1.1-0.5,1.6-0.8c0.6-0.3,1.1-0.8,1.7-1.2
			c0.6-0.4,1.2-0.9,1.8-1.2c0.3-0.2,0.6-0.3,0.9-0.5c0.3-0.1,0.6-0.3,0.9-0.3c0.3-0.1,0.6-0.1,0.8-0.2c0.2,0,0.5,0,0.7,0
			c0.2,0,0.3,0.1,0.4,0.1c0.1,0,0.1,0,0.1,0c0.2,0.1,0.4,0.3,0.3,0.6C23.4,37.2,23.1,37.3,22.8,37.2C22.9,37.2,22.9,37.2,22.8,37.2z
			"/>
		<path class="st0" d="M25.2,40.4c0,0,0,0,0,0.1c0,0.1,0,0.2,0,0.4c0,0.2-0.1,0.4-0.1,0.6c-0.1,0.2-0.2,0.5-0.3,0.7
			c-0.1,0.2-0.3,0.5-0.5,0.8c-0.2,0.3-0.4,0.5-0.6,0.8c-0.4,0.5-0.9,1-1.3,1.6l-0.2,0.2l-0.2,0.2l-0.4,0.4c-0.1,0.1-0.2,0.2-0.3,0.4
			c-0.1,0.1-0.3,0.2-0.4,0.3c-0.3,0.2-0.5,0.4-0.7,0.6c-0.2,0.2-0.5,0.3-0.7,0.5c-0.4,0.3-0.8,0.5-1.1,0.7c-0.3,0.2-0.4,0.2-0.4,0.2
			c0,0-0.1,0-0.1,0c0,0,0-0.1,0-0.1l0,0c0,0,0.1-0.1,0.4-0.3c0.2-0.2,0.6-0.4,1-0.8c0.2-0.2,0.4-0.3,0.6-0.5
			c0.2-0.2,0.4-0.4,0.7-0.6c0.1-0.1,0.2-0.2,0.3-0.3c0.1-0.1,0.2-0.3,0.3-0.4l0.3-0.4l0.2-0.2L22,45c0.4-0.6,0.8-1.1,1.2-1.6
			c0.2-0.3,0.3-0.5,0.5-0.8c0.1-0.2,0.3-0.5,0.4-0.7c0.1-0.2,0.2-0.4,0.2-0.6c0-0.2,0.1-0.3,0.1-0.4c0-0.1,0-0.2,0-0.3
			c0-0.1,0-0.1,0-0.1c0-0.3,0.2-0.5,0.4-0.5C24.9,39.9,25.2,40.1,25.2,40.4C25.2,40.4,25.2,40.4,25.2,40.4z"/>
		<path class="st0" d="M29.9,43.7c0,0,0,0.1,0,0.1c0,0.1,0,0.2,0.1,0.4c0,0.2,0,0.4,0.1,0.7c0,0.3,0,0.6-0.1,0.9
			c-0.1,0.7-0.4,1.4-0.8,2.1c-0.4,0.7-0.9,1.4-1.3,2.1c-0.5,0.7-0.9,1.4-1.3,2c-0.4,0.7-0.8,1.3-1,1.9c-0.1,0.3-0.2,0.5-0.3,0.8
			C25.1,55,25,55.2,25,55.4c-0.1,0.3-0.2,0.5-0.2,0.5l0,0c0,0,0,0-0.1,0c0,0,0,0,0-0.1c0,0,0.1-0.2,0.1-0.6c0-0.2,0.1-0.4,0.2-0.6
			c0.1-0.2,0.2-0.5,0.3-0.8c0.2-0.6,0.5-1.3,0.9-1.9c0.4-0.7,0.8-1.4,1.2-2.1c0.4-0.7,0.9-1.4,1.2-2.1c0.3-0.7,0.6-1.3,0.6-1.9
			c0-0.3,0-0.5,0-0.8c0-0.2,0-0.4-0.1-0.6c0-0.2-0.1-0.3-0.1-0.4c0-0.1,0-0.1,0-0.1c-0.1-0.3,0.1-0.5,0.3-0.6
			C29.6,43.3,29.9,43.5,29.9,43.7C29.9,43.7,29.9,43.7,29.9,43.7z"/>
		<path class="st0" d="M33.2,46.6c0,0,0,0.2,0.1,0.5c0,0.2,0,0.4,0.1,0.6c0,0.1,0,0.2,0.1,0.4c0,0.1,0,0.3,0,0.4c0,0.3,0,0.6,0,1
			c0,0.3-0.1,0.7-0.1,1c0,0.2,0,0.4-0.1,0.5c0,0.2-0.1,0.4-0.1,0.6c-0.1,0.4-0.2,0.8-0.2,1.1c-0.1,0.4-0.2,0.7-0.2,1.1
			c-0.1,0.4-0.1,0.7-0.1,1.1c0,0.3,0,0.7,0,1c0,0.2,0,0.3,0,0.5c0,0.1,0.1,0.3,0.1,0.4c0,0.3,0.2,0.5,0.2,0.7c0,0.1,0.1,0.2,0.1,0.3
			c0.1,0.1,0.1,0.2,0.2,0.2c0.2,0.3,0.3,0.4,0.3,0.4l0,0c0,0,0,0.1,0,0.1c0,0-0.1,0-0.1,0c0,0-0.1-0.1-0.3-0.4
			c-0.1-0.1-0.1-0.1-0.2-0.2c0-0.1-0.1-0.2-0.2-0.3c-0.1-0.2-0.2-0.4-0.3-0.7c0-0.1-0.1-0.3-0.1-0.4c0-0.2,0-0.3-0.1-0.5
			c-0.1-0.3,0-0.7-0.1-1c0-0.4,0-0.7,0.1-1.1c0-0.4,0.1-0.8,0.2-1.1c0.1-0.4,0.1-0.7,0.2-1.1c0-0.2,0.1-0.4,0.1-0.5
			c0-0.2,0-0.4,0-0.5c0-0.3,0-0.7,0-1c0-0.3-0.1-0.6-0.1-0.9c0-0.1,0-0.3,0-0.4c0-0.1-0.1-0.2-0.1-0.4c0-0.2-0.1-0.4-0.1-0.6
			c-0.1-0.3-0.1-0.5-0.1-0.5c-0.1-0.3,0.1-0.5,0.4-0.6C32.9,46.2,33.1,46.3,33.2,46.6C33.2,46.6,33.2,46.6,33.2,46.6z"/>
		<path class="st0" d="M37.1,48.5c0,0,0,0.2,0,0.5c0,0.3-0.1,0.8-0.1,1.4c-0.1,1.2-0.4,2.7-0.5,4.2c0,0.4,0,0.8,0,1.1
			c0,0.4,0.1,0.7,0.1,1.1c0.1,0.3,0.1,0.7,0.3,1c0.1,0.2,0.1,0.3,0.2,0.4c0.1,0.1,0.1,0.3,0.2,0.4c0.1,0.3,0.3,0.5,0.4,0.7
			c0.1,0.2,0.3,0.4,0.4,0.5c0.2,0.3,0.3,0.4,0.3,0.4l0,0c0,0,0,0.1,0,0.1c0,0-0.1,0-0.1,0c0,0-0.1-0.1-0.4-0.4
			c-0.1-0.1-0.3-0.3-0.4-0.5c-0.1-0.2-0.3-0.4-0.5-0.7c-0.1-0.1-0.2-0.3-0.2-0.4c-0.1-0.1-0.1-0.3-0.2-0.4c-0.2-0.3-0.2-0.7-0.4-1
			c-0.1-0.4-0.2-0.7-0.2-1.1c-0.1-0.4-0.1-0.8-0.1-1.2c0-1.6,0.2-3.1,0.2-4.3c0-0.6,0.1-1,0-1.4c0-0.3,0-0.5,0-0.5
			c0-0.3,0.2-0.5,0.5-0.5C36.9,48,37.1,48.2,37.1,48.5C37.1,48.5,37.1,48.5,37.1,48.5z"/>
		<path class="st0" d="M42.5,52.3c0,0,0,0.2,0.1,0.5c0,0.2,0.1,0.3,0.1,0.6c0,0.2,0.1,0.5,0.1,0.8c0,0.6,0,1.2-0.1,1.9
			c-0.1,0.7-0.2,1.4-0.3,2.1c0,0.3-0.1,0.7-0.1,1c0,0.3,0,0.7,0,1c0,0.3,0,0.6,0.1,0.9c0,0.3,0.1,0.6,0.2,0.8
			c0.1,0.3,0.2,0.5,0.3,0.7c0.1,0.2,0.2,0.4,0.2,0.5c0.1,0.3,0.2,0.4,0.2,0.4l0,0c0,0,0,0.1,0,0.1c0,0-0.1,0-0.1,0
			c0,0-0.1-0.2-0.3-0.4c-0.1-0.1-0.2-0.3-0.3-0.5c-0.1-0.2-0.2-0.4-0.3-0.7c-0.1-0.3-0.2-0.5-0.3-0.8c-0.1-0.3-0.1-0.6-0.2-1
			c0-0.3-0.1-0.7,0-1c0-0.4,0-0.7,0-1.1c0.1-0.7,0.1-1.4,0.2-2.1c0-0.7,0-1.3,0-1.8c0-0.3-0.1-0.5-0.1-0.7c0-0.2-0.1-0.4-0.1-0.5
			c-0.1-0.3-0.1-0.5-0.1-0.5c-0.1-0.2,0.1-0.5,0.3-0.6C42.2,51.9,42.4,52,42.5,52.3C42.5,52.3,42.5,52.3,42.5,52.3z"/>
		<path class="st0" d="M45.9,52.5c0,0-0.1,1.7-0.2,3.5c0,0.2,0,0.4,0,0.6c0,0.2,0,0.4,0,0.6c0,0.4-0.1,0.8-0.1,1.1
			c0,0.2,0,0.3,0,0.4c0,0.1,0.1,0.2,0.1,0.3c0.1,0.2,0.1,0.3,0.1,0.3l0,0c0,0,0,0.1,0,0.1c0,0-0.1,0-0.1,0c0,0-0.1-0.1-0.2-0.3
			c0-0.1-0.1-0.2-0.1-0.3c0-0.1-0.1-0.3-0.1-0.5c0-0.3,0-0.7,0-1.1c0-0.2,0-0.4,0-0.6c0-0.2,0-0.4,0-0.6c-0.1-1.7-0.2-3.5-0.2-3.5
			l0,0c0-0.3,0.2-0.5,0.4-0.5C45.7,52,45.9,52.2,45.9,52.5C45.9,52.4,45.9,52.5,45.9,52.5z"/>
		<path class="st0" d="M19.3,29.7c0,0-0.1-0.1-0.4-0.3c-0.1-0.1-0.2-0.2-0.4-0.3c-0.1-0.1-0.4-0.2-0.6-0.3c-0.4-0.2-1-0.5-1.5-0.8
			c-0.3-0.2-0.6-0.3-0.8-0.6c-0.1-0.1-0.1-0.1-0.2-0.2l-0.2-0.2l-0.4-0.4c-0.2-0.2-0.5-0.5-0.7-0.7c-0.2-0.3-0.4-0.5-0.6-0.8
			c-0.2-0.2-0.4-0.5-0.5-0.7c-0.2-0.2-0.3-0.5-0.5-0.7c-0.1-0.2-0.2-0.4-0.4-0.6c-0.1-0.2-0.2-0.3-0.3-0.5c-0.1-0.3-0.2-0.4-0.2-0.4
			c0,0,0-0.1,0-0.1c0,0,0.1,0,0.1,0l0,0c0,0,0.1,0.1,0.3,0.4c0.1,0.1,0.2,0.3,0.3,0.4c0.1,0.2,0.2,0.4,0.4,0.6
			c0.2,0.2,0.3,0.4,0.5,0.6c0.2,0.2,0.4,0.5,0.6,0.7c0.2,0.2,0.4,0.4,0.7,0.7c0.2,0.2,0.5,0.4,0.7,0.7l0.4,0.3l0.2,0.2
			c0,0,0.1,0.1,0.2,0.1c0.2,0.2,0.5,0.3,0.8,0.5c0.5,0.3,1.1,0.4,1.6,0.6c0.2,0.1,0.5,0.2,0.7,0.3c0.2,0.1,0.4,0.2,0.5,0.3
			c0.2,0.2,0.4,0.3,0.4,0.3c0.2,0.1,0.3,0.4,0.1,0.6C19.8,29.8,19.5,29.9,19.3,29.7C19.3,29.8,19.3,29.7,19.3,29.7z"/>
		<path class="st0" d="M21,28.1c0,0,0-0.1,0-0.2c0-0.1,0-0.1,0-0.2c0-0.1,0-0.1,0-0.2c0-0.1,0-0.2-0.1-0.3c0-0.1-0.1-0.2-0.1-0.3
			c-0.1-0.2-0.3-0.5-0.4-0.8c-0.4-0.6-0.9-1.1-1.6-1.8c-0.3-0.3-0.6-0.7-0.9-1c-0.3-0.4-0.6-0.8-0.8-1.2c-0.3-0.4-0.5-0.8-0.7-1.2
			c-0.2-0.4-0.5-0.8-0.7-1.2c-0.2-0.4-0.4-0.8-0.6-1.1c-0.2-0.4-0.4-0.7-0.6-1c-0.2-0.3-0.4-0.6-0.5-0.8c-0.2-0.2-0.3-0.4-0.4-0.6
			c-0.2-0.3-0.4-0.5-0.4-0.5l0,0c0,0,0-0.1,0-0.1c0,0,0.1,0,0.1,0c0,0,0.2,0.2,0.4,0.5c0.1,0.2,0.3,0.4,0.5,0.6
			c0.2,0.2,0.4,0.5,0.6,0.8c0.2,0.3,0.4,0.6,0.6,1c0.2,0.3,0.4,0.7,0.7,1.1c0.2,0.4,0.5,0.8,0.7,1.2c0.2,0.4,0.5,0.8,0.8,1.2
			c0.3,0.4,0.6,0.8,0.9,1.1c0.3,0.3,0.6,0.6,1,0.9c0.6,0.6,1.3,1.2,1.7,1.8c0.2,0.3,0.4,0.6,0.6,0.9c0.1,0.1,0.1,0.3,0.2,0.4
			c0.1,0.1,0.1,0.3,0.1,0.4c0,0.1,0.1,0.2,0.1,0.3c0,0.1,0,0.1,0,0.2c0,0.1,0,0.2,0,0.2c0,0.3-0.1,0.5-0.4,0.5
			C21.3,28.5,21,28.4,21,28.1C21,28.1,21,28.1,21,28.1z"/>
		<path class="st0" d="M29.8,14.4c0,0-0.2-0.1-0.4-0.4c-0.1-0.1-0.1-0.1-0.2-0.2c-0.1-0.1-0.2-0.1-0.3-0.2c-0.2-0.1-0.4-0.3-0.7-0.4
			C28,13.1,27.9,13,27.7,13c-0.2-0.1-0.3-0.1-0.5-0.2c-0.3-0.1-0.7-0.2-1.1-0.4c-0.4-0.1-0.8-0.2-1.2-0.4c-0.4-0.1-0.8-0.3-1.2-0.5
			c-0.4-0.2-0.8-0.4-1.1-0.7c-0.4-0.2-0.7-0.5-1-0.8C20.9,9.6,20.4,9,20,8.5c-0.2-0.3-0.3-0.5-0.4-0.8c-0.1-0.2-0.2-0.5-0.2-0.7
			c-0.1-0.2-0.1-0.3-0.1-0.4c0-0.1,0-0.2,0-0.2c0,0,0-0.1,0-0.1c0,0,0.1,0,0.1,0l0,0c0,0,0,0.1,0,0.1c0,0.1,0,0.2,0.1,0.4
			c0,0.2,0.1,0.4,0.3,0.6c0.1,0.2,0.3,0.5,0.5,0.7c0.4,0.5,0.9,1,1.6,1.5c0.3,0.2,0.7,0.5,1,0.7c0.4,0.2,0.7,0.4,1.1,0.6
			c0.4,0.1,0.8,0.3,1.2,0.4c0.4,0.1,0.8,0.2,1.2,0.3c0.4,0.1,0.8,0.2,1.1,0.3c0.2,0.1,0.4,0.1,0.5,0.2c0.2,0.1,0.3,0.1,0.5,0.2
			c0.3,0.1,0.6,0.3,0.8,0.4c0.1,0.1,0.2,0.1,0.3,0.2c0.1,0.1,0.2,0.1,0.2,0.2c0.3,0.2,0.5,0.4,0.5,0.4c0.2,0.2,0.2,0.5,0.1,0.7
			C30.3,14.5,30,14.6,29.8,14.4C29.8,14.4,29.8,14.4,29.8,14.4z"/>
		<path class="st0" d="M26.4,18.9c0,0-0.1-0.2-0.2-0.4c0-0.1-0.1-0.1-0.1-0.2c0-0.1-0.1-0.1-0.2-0.2c-0.1-0.2-0.2-0.3-0.4-0.5
			c-0.1-0.1-0.2-0.2-0.2-0.3c-0.1-0.1-0.2-0.2-0.3-0.3c-0.2-0.2-0.4-0.4-0.7-0.6c-0.3-0.2-0.5-0.3-0.8-0.5c-0.3-0.2-0.6-0.3-0.9-0.4
			c-0.3-0.1-0.6-0.2-1-0.3c-0.3-0.1-0.7-0.1-1-0.2c-0.6-0.1-1.2-0.3-1.7-0.6c-0.5-0.3-0.8-0.6-0.9-0.9c-0.1-0.1-0.1-0.2-0.2-0.3
			c0-0.1,0-0.1,0-0.1c0,0,0-0.1,0-0.1c0,0,0.1,0,0.1,0l0,0c0,0,0,0,0.1,0.1c0,0.1,0.1,0.2,0.2,0.3c0.2,0.2,0.5,0.5,0.9,0.7
			c0.5,0.2,1,0.4,1.7,0.5c0.3,0,0.6,0.1,1,0.1c0.3,0,0.7,0.1,1,0.2c0.3,0.1,0.7,0.2,1,0.3c0.3,0.1,0.6,0.3,0.9,0.4
			c0.3,0.2,0.6,0.3,0.8,0.6c0.1,0.1,0.2,0.2,0.4,0.3c0.1,0.1,0.2,0.2,0.3,0.3c0.2,0.2,0.4,0.4,0.5,0.6c0.1,0.1,0.1,0.2,0.2,0.3
			c0.1,0.1,0.1,0.1,0.1,0.2c0.2,0.3,0.3,0.4,0.3,0.4c0.1,0.2,0.1,0.5-0.1,0.6C26.8,19.2,26.5,19.2,26.4,18.9
			C26.4,19,26.4,19,26.4,18.9z"/>
		<path class="st0" d="M22.3,23.5c0,0-0.4-0.5-0.9-1.2c-0.6-0.8-1.3-1.7-2.1-2.7c-0.4-0.5-0.8-1-1.2-1.4c-0.4-0.5-0.7-1-0.8-1.4
			c-0.2-0.4-0.3-0.8-0.3-1.1c0-0.3-0.1-0.4-0.1-0.4c0,0,0-0.1,0-0.1c0,0,0.1,0,0.1,0c0,0,0,0.2,0.1,0.4c0.1,0.3,0.2,0.6,0.4,1
			c0.4,0.8,1.3,1.7,2.2,2.6c0.8,0.9,1.7,1.8,2.3,2.5c0.6,0.7,1,1.2,1,1.2c0.2,0.2,0.2,0.5,0,0.7C22.8,23.7,22.5,23.7,22.3,23.5
			C22.3,23.5,22.3,23.5,22.3,23.5z"/>
		<path class="st0" d="M57.8,38.3c0,0,0,0,0.1,0.1c0,0.1,0.1,0.2,0.2,0.3c0,0.1,0.1,0.1,0.1,0.2c0.1,0.1,0.1,0.1,0.2,0.2
			c0.1,0.1,0.2,0.1,0.3,0.2c0.1,0.1,0.2,0.1,0.3,0.2c0.2,0.1,0.5,0.3,0.8,0.3c0.3,0.1,0.7,0.2,1,0.2c0.7,0.1,1.6,0.1,2.4,0.1
			c0.4,0,0.8,0,1.2,0c0.4,0,0.8,0,1.2,0.1c0.4,0.1,0.8,0.1,1.1,0.2c0.3,0.1,0.7,0.2,1,0.3c0.6,0.2,1.1,0.4,1.4,0.4
			c0.3,0.1,0.5,0,0.5,0l0,0.1c0,0,0,0,0,0c0,0,0,0,0,0c0,0-0.2,0-0.6,0c-0.4,0-0.9-0.2-1.5-0.3c-0.3-0.1-0.6-0.2-1-0.2
			c-0.3-0.1-0.7-0.1-1.1-0.1c-0.4,0-0.8,0-1.2,0c-0.4,0-0.8,0-1.2,0.1c-0.8,0-1.7,0.1-2.5,0c-0.4,0-0.8-0.1-1.2-0.1
			c-0.4-0.1-0.7-0.2-1-0.3c-0.2-0.1-0.3-0.2-0.4-0.2C58.1,40,58,40,57.9,39.9c-0.1-0.1-0.2-0.2-0.3-0.3c-0.1-0.1-0.2-0.2-0.2-0.3
			c-0.1-0.2-0.2-0.3-0.2-0.4C57,38.9,57,38.8,57,38.8c-0.1-0.2-0.1-0.5,0.2-0.6C57.4,38,57.7,38.1,57.8,38.3
			C57.8,38.3,57.8,38.3,57.8,38.3z"/>
		<path class="st0" d="M58.9,30.2c0,0,0.1,0.1,0.3,0.2c0,0,0.1,0.1,0.2,0.1c0.1,0,0.1,0.1,0.2,0.1c0.1,0.1,0.3,0.2,0.4,0.2
			c0.1,0,0.2,0.1,0.3,0.1c0.1,0,0.2,0.1,0.3,0.1c0.2,0.1,0.4,0.1,0.7,0.1c0.5,0,1,0.1,1.6,0.1c0.6,0,1.1,0,1.6,0
			c0.3,0,0.5,0.1,0.8,0.1c0.2,0.1,0.5,0.1,0.7,0.2c0.1,0,0.2,0.1,0.3,0.1c0.1,0,0.2,0.1,0.2,0.1c0.2,0.1,0.3,0.2,0.4,0.2
			c0.2,0.2,0.3,0.2,0.3,0.2c0,0,0,0.1,0,0.1c0,0,0,0-0.1,0l0,0c0,0-0.1-0.1-0.3-0.2c-0.1-0.1-0.2-0.1-0.4-0.2
			c-0.1,0-0.2-0.1-0.2-0.1c-0.1,0-0.2,0-0.3-0.1c-0.2-0.1-0.4-0.1-0.6-0.1c-0.2,0-0.5,0-0.7,0c-0.5,0-1,0.1-1.6,0.1
			c-0.6,0.1-1.1,0.1-1.6,0.1c-0.3,0-0.5,0-0.8-0.1c-0.1,0-0.2,0-0.4-0.1c-0.1,0-0.2-0.1-0.3-0.1c-0.2-0.1-0.4-0.1-0.6-0.2
			c-0.1,0-0.2-0.1-0.3-0.1c-0.1,0-0.1-0.1-0.2-0.1c-0.2-0.1-0.3-0.2-0.3-0.2c-0.2-0.1-0.3-0.4-0.1-0.6C58.4,30.1,58.6,30,58.9,30.2
			C58.9,30.2,58.9,30.2,58.9,30.2z"/>
		<path class="st0" d="M58.2,21.8c0,0,0.2,0.1,0.5,0.2c0.3,0.1,0.7,0.3,1.2,0.5c0.5,0.2,1.1,0.4,1.8,0.5c0.3,0,0.7,0.1,1,0
			c0.3,0,0.7-0.2,1.1-0.2c0.4-0.1,0.8-0.1,1.2-0.1c0.4,0,0.8,0.1,1.1,0.1c0.7,0.1,1.3,0.4,1.9,0.6c0.5,0.2,0.9,0.4,1.3,0.5
			c0.2,0,0.3,0.1,0.4,0.1c0.1,0,0.1,0,0.1,0l0,0c0,0,0,0,0,0.1c0,0,0,0-0.1,0c0,0,0,0-0.1,0c-0.1,0-0.2,0-0.4-0.1
			c-0.3-0.1-0.8-0.2-1.3-0.4c-0.5-0.2-1.2-0.4-1.8-0.5c-0.3,0-0.7-0.1-1,0c-0.4,0-0.7,0.1-1,0.2c-0.4,0.1-0.7,0.2-1.1,0.3
			c-0.4,0.1-0.8,0.1-1.2,0c-0.7-0.1-1.4-0.2-2-0.4c-0.6-0.2-1-0.3-1.3-0.4c-0.3-0.1-0.5-0.2-0.5-0.2c-0.2-0.1-0.4-0.4-0.3-0.6
			C57.7,21.9,57.9,21.7,58.2,21.8C58.2,21.8,58.2,21.8,58.2,21.8z"/>
		<path class="st0" d="M55.1,15.5c0,0,0.2,0,0.6,0c0.4,0,0.9,0,1.5,0c0.3,0,0.6,0,1-0.1c0.3,0,0.7-0.1,1.1-0.1
			c0.4-0.1,0.8-0.1,1.1-0.2c0.4-0.1,0.8-0.2,1.2-0.3c0.4-0.1,0.8-0.2,1.2-0.4c0.4-0.1,0.8-0.2,1.2-0.3c0.4-0.1,0.8-0.1,1.1-0.2
			c0.4,0,0.7-0.1,1-0.1c0.6,0,1.1,0,1.5-0.1c0.4,0,0.6,0,0.6,0c0,0,0.1,0,0.1,0.1c0,0,0,0.1-0.1,0.1c0,0-0.2,0-0.6,0
			c-0.4,0-0.9,0.1-1.5,0.1c-0.3,0-0.6,0.1-1,0.2c-0.3,0.1-0.7,0.1-1.1,0.3c-0.4,0.1-0.7,0.2-1.1,0.4c-0.4,0.1-0.8,0.3-1.2,0.4
			c-0.4,0.1-0.8,0.3-1.2,0.4c-0.4,0.1-0.8,0.2-1.2,0.3c-0.4,0.1-0.8,0.1-1.1,0.2c-0.4,0-0.7,0.1-1,0.1c-0.6,0-1.2,0.1-1.5,0.1
			c-0.4,0-0.6,0-0.6,0c-0.3,0-0.5-0.2-0.5-0.5C54.6,15.7,54.8,15.5,55.1,15.5C55.1,15.5,55.1,15.5,55.1,15.5z"/>
		<path class="st0" d="M50.1,11.2c0,0,0.1-0.1,0.2-0.3c0.1-0.1,0.2-0.3,0.3-0.4c0.1-0.2,0.3-0.3,0.5-0.5c0.2-0.2,0.4-0.3,0.6-0.5
			c0.2-0.1,0.4-0.3,0.7-0.4c0.5-0.3,1-0.5,1.6-0.7c1.1-0.4,2.2-0.8,3-1.1c0.8-0.3,1.3-0.6,1.3-0.6c0,0,0.1,0,0.1,0c0,0,0,0.1,0,0.1
			c0,0-0.5,0.3-1.3,0.7c-0.8,0.4-1.9,0.8-2.9,1.3c-0.5,0.3-1,0.5-1.4,0.8c-0.2,0.1-0.4,0.3-0.6,0.4c-0.2,0.2-0.3,0.3-0.5,0.5
			c-0.1,0.2-0.3,0.3-0.3,0.4c-0.1,0.1-0.2,0.2-0.2,0.3c-0.1,0.2-0.2,0.4-0.2,0.4c-0.1,0.2-0.4,0.3-0.6,0.2
			C50.1,11.7,50,11.5,50.1,11.2C50.1,11.2,50.1,11.2,50.1,11.2z"/>
		<path class="st0" d="M53.6,43.7c0,0,0.1,0.1,0.2,0.4c0.1,0.1,0.2,0.3,0.3,0.4c0.1,0.2,0.2,0.3,0.4,0.5c0.1,0.2,0.3,0.4,0.5,0.6
			c0.2,0.2,0.4,0.4,0.6,0.6c0.4,0.4,0.9,0.8,1.4,1.3c0.2,0.2,0.5,0.5,0.7,0.7c0.1,0.1,0.2,0.2,0.3,0.4c0.1,0.1,0.2,0.3,0.3,0.4
			c0.2,0.3,0.3,0.5,0.5,0.8c0.1,0.3,0.3,0.5,0.4,0.7c0.1,0.2,0.2,0.4,0.3,0.6c0.1,0.2,0.1,0.4,0.2,0.5c0.1,0.3,0.1,0.4,0.1,0.4
			c0,0,0,0.1,0,0.1c0,0-0.1,0-0.1,0l0,0c0,0-0.1-0.2-0.2-0.4c-0.1-0.1-0.1-0.3-0.2-0.5c-0.1-0.2-0.2-0.4-0.3-0.6
			c-0.1-0.2-0.3-0.4-0.4-0.7c-0.2-0.2-0.3-0.5-0.5-0.7c-0.1-0.1-0.2-0.2-0.3-0.3c-0.1-0.1-0.2-0.2-0.3-0.3c-0.2-0.2-0.5-0.4-0.7-0.6
			c-0.5-0.4-1.1-0.8-1.5-1.2c-0.2-0.2-0.5-0.4-0.7-0.6c-0.2-0.2-0.4-0.4-0.6-0.6c-0.2-0.2-0.3-0.4-0.4-0.6c-0.1-0.2-0.2-0.3-0.3-0.4
			c-0.2-0.2-0.3-0.4-0.3-0.4c-0.1-0.2-0.1-0.5,0.1-0.6C53.2,43.4,53.5,43.5,53.6,43.7C53.6,43.7,53.6,43.7,53.6,43.7z"/>
	</g>
	<path class="st0" d="M58.9,25.8c0.8-1.1,1.2-2.4,1.2-3.8c0-2.9-1.8-5.3-4.3-6.2c-0.2-3.5-3.1-6.3-6.6-6.3c-1.1,0-2.1,0.3-3,0.7
		c-1.2-1.4-3-2.2-5-2.2c-2.9,0-5.3,1.8-6.2,4.4c-0.8-0.4-1.7-0.6-2.7-0.6c-3.6,0-6.6,2.9-6.6,6.5c-2.5,0.9-4.3,3.4-4.3,6.2
		c0,0.3,0,0.6,0.1,0.9c-1.7,1.2-2.9,3.2-2.9,5.5c0,2.8,1.7,5.1,4.1,6.1c0,3.3,2.5,6.1,5.7,6.6c0.5,3.2,3.2,5.7,6.6,5.7
		c0.5,0,1.1-0.1,1.6-0.2c0.4,3.3,3.2,5.8,6.6,5.8c3.1,0,5.6-2.1,6.4-4.9c3.3-0.4,5.8-3.2,5.8-6.6c0-0.4,0-0.8-0.1-1.2
		c2.9-0.7,5-3.3,5-6.4c0-1.1-0.3-2.1-0.7-3.1c0.5-0.9,0.7-2,0.7-3.1C60.1,28.2,59.7,26.9,58.9,25.8z"/>
	<path class="st1" d="M42.6,51.3c-2.6,0-4.7-1.9-5-4.4L37.4,46l-0.8,0.2c-0.4,0.1-0.8,0.1-1.2,0.1c-2.5,0-4.7-1.9-5-4.3l-0.1-0.5
		l-0.5-0.1c-2.5-0.4-4.3-2.5-4.3-5l0-0.5L25,35.7c-1.9-0.8-3.1-2.6-3.1-4.7c0-1.7,0.8-3.2,2.2-4.2l0.4-0.3l-0.1-0.4
		c0-0.2,0-0.5,0-0.7c0-2.1,1.3-4,3.3-4.8l0.5-0.2l0-0.5c0-2.8,2.3-5,5.1-5c0.7,0,1.4,0.1,2.1,0.4l0.7,0.3l0.3-0.7
		c0.7-2,2.6-3.4,4.8-3.4c1.4,0,2.8,0.6,3.8,1.7l0.4,0.4l0.5-0.3c0.7-0.4,1.5-0.5,2.3-0.5c2.7,0,4.9,2.1,5.1,4.8l0,0.5l0.5,0.2
		c2,0.7,3.3,2.6,3.3,4.8c0,1.1-0.3,2.1-0.9,2.9l-0.3,0.4l0.3,0.4c0.6,0.9,0.9,1.9,0.9,2.9c0,0.8-0.2,1.6-0.6,2.3l-0.2,0.3l0.2,0.3
		c0.4,0.7,0.6,1.5,0.6,2.3c0,2.3-1.6,4.3-3.8,4.9l-0.7,0.2l0.1,0.7c0.1,0.3,0.1,0.6,0.1,0.9c0,2.6-1.9,4.7-4.5,5l-0.5,0.1l-0.1,0.5
		C46.9,49.7,44.9,51.3,42.6,51.3z"/>
	<path class="st1" d="M54.6,32.9c2.3,3.4-1.6,7.9-4.3,6.4c1.3,3.2,0.8,5.7-0.9,6.7c-0.8,0.5-1.9,0.6-3.3,0.4
		c-0.3,4.5-7.2,1.6-6.1-2.3c-4.2,3.1-9.1,0.3-8-4c-3.5,0.7-6.8-3.2-5.2-5.6c-3.9-0.1-5.4-5.2-0.9-6.8c-1.6-3.2,0.6-6.5,3.9-6.2
		c-0.4-6.5,5.3-6.1,7.6-3.2c-1.3-4.2,4.4-7.5,7.8-2.6c0,0,0.1-0.1,0.1-0.1c1.1-1.3,6.7-2.6,6.4,3.5c3.9,0.9,5.2,4.7,2,7.1
		C56.3,26.7,57.2,30.1,54.6,32.9z"/>
	<path class="st2" d="M54.6,32.9c2.3,3.4-1.6,7.9-4.3,6.4c1.3,3.2,0.8,5.7-0.9,6.7c-1-0.8-1.7-2.1-1.3-3.6c-4.2,3.1-9.1,0.3-8-4
		c-3.5,0.7-6.8-3.2-5.2-5.6c-3.9-0.1-5.4-5.2-0.9-6.8c-1.6-3.2,0.6-6.5,3.9-6.2c-0.4-6.5,5.3-6.1,7.6-3.2c-0.1-0.4-0.2-0.8-0.2-1.1
		c1.1-1.3,6.7-2.6,6.4,3.5c3.9,0.9,5.2,4.7,2,7.1C56.3,26.7,57.2,30.1,54.6,32.9z"/>
	<path class="st3" d="M28.4,15.9c0-0.2,0.1-0.4,0.1-0.5c0.1-0.2,0.1-0.4,0.2-0.5c0.2-0.3,0.4-0.6,0.7-0.9c0.5-0.5,1.2-0.9,1.9-1.1
		c0.7-0.2,1.5-0.3,2.2-0.2c0.7,0,1.4,0.2,2.1,0.4l-0.4,0.2c0.1-0.2,0.1-0.3,0.2-0.4c0.1-0.1,0.2-0.3,0.2-0.4
		c0.2-0.3,0.4-0.5,0.6-0.7c0.4-0.5,0.9-0.9,1.4-1.2c0.5-0.3,1.1-0.5,1.7-0.7c0.3,0,0.6-0.1,0.9-0.1c0.3,0,0.6,0,0.9,0.1
		c0.1,0,0.2,0.1,0.2,0.2c0,0.1-0.1,0.2-0.2,0.2l0,0c-0.6,0-1.1,0-1.7,0.1C39,10.5,38.5,10.7,38,11c-0.5,0.3-0.9,0.7-1.2,1.1
		c-0.2,0.2-0.3,0.4-0.5,0.7c-0.1,0.1-0.1,0.2-0.2,0.4c-0.1,0.1-0.1,0.3-0.2,0.4l-0.1,0.3l-0.3-0.1c-0.6-0.2-1.3-0.3-2-0.4
		c-0.7-0.1-1.3,0-2,0.2c-0.6,0.2-1.2,0.4-1.7,0.8c-0.2,0.2-0.5,0.4-0.6,0.7c-0.2,0.3-0.3,0.6-0.4,0.9c0,0.1-0.1,0.2-0.2,0.1
		C28.5,16.1,28.4,16,28.4,15.9L28.4,15.9z"/>
	<path class="st3" d="M52.1,12c0.3,0.1,0.5,0.2,0.7,0.4c0.2,0.2,0.4,0.3,0.6,0.5c0.2,0.2,0.3,0.4,0.5,0.6c0.1,0.2,0.3,0.5,0.4,0.7
		c0,0.1,0.1,0.2,0.1,0.4l0.1,0.4c0.1,0.2,0.1,0.5,0.2,0.8c0,0.3,0.1,0.5,0.1,0.8l0,0.8l-0.3-0.3c0.2,0,0.3,0.1,0.5,0.1
		c0.1,0.1,0.3,0.1,0.4,0.2c0.3,0.1,0.5,0.3,0.8,0.5c0.5,0.3,0.9,0.8,1.2,1.3c0.6,1,0.8,2.2,0.8,3.3c0,0.1-0.1,0.2-0.2,0.2
		c-0.1,0-0.2-0.1-0.2-0.2c-0.1-1.1-0.4-2.1-1-3c-0.3-0.4-0.7-0.8-1.1-1.1c-0.2-0.1-0.4-0.3-0.7-0.4c-0.1-0.1-0.2-0.1-0.4-0.1
		c-0.1,0-0.3-0.1-0.3-0.1l-0.3-0.1l0-0.3c0-0.5-0.1-1-0.1-1.4c-0.1-0.2-0.1-0.5-0.2-0.7l-0.1-0.3c0-0.1-0.1-0.2-0.1-0.3
		c-0.1-0.2-0.2-0.4-0.3-0.6c-0.1-0.2-0.2-0.4-0.4-0.6c-0.1-0.2-0.3-0.4-0.5-0.5c-0.2-0.2-0.4-0.3-0.5-0.4l0,0
		c-0.1,0-0.1-0.2-0.1-0.2C51.9,12,52,12,52.1,12z"/>
	<path class="st3" d="M19.8,31.8c0.1,0.5,0.2,1.1,0.5,1.6c0.2,0.5,0.5,1,0.9,1.3c0.4,0.4,0.8,0.7,1.3,0.9c0.2,0.1,0.5,0.2,0.7,0.3
		c0.3,0.1,0.5,0.1,0.8,0.1l0.4,0.1l-0.1,0.3c0,0.1,0,0.3,0,0.4c0,0.2,0,0.3,0,0.5c0,0.3,0,0.6,0.1,0.9c0.1,0.6,0.3,1.2,0.6,1.7
		c0.2,0.3,0.3,0.5,0.6,0.7c0.1,0.1,0.2,0.2,0.3,0.3c0.1,0.1,0.2,0.2,0.4,0.3c0.5,0.3,1.1,0.5,1.7,0.7l0,0c0.1,0,0.2,0.1,0.1,0.2
		c0,0.1-0.1,0.2-0.2,0.1c-0.3,0-0.7-0.1-1-0.2c-0.3-0.1-0.6-0.2-0.9-0.4c-0.6-0.3-1.1-0.8-1.5-1.4c-0.4-0.6-0.6-1.2-0.8-1.9
		c-0.1-0.3-0.1-0.7-0.1-1c0-0.2,0-0.3,0-0.5c0-0.2,0-0.3,0-0.5l0.3,0.4c-0.6-0.1-1.2-0.2-1.7-0.5c-0.5-0.3-1.1-0.6-1.5-1.1
		c-0.4-0.5-0.7-1-0.9-1.6c-0.2-0.6-0.3-1.1-0.4-1.7c0-0.1,0.1-0.2,0.2-0.2C19.7,31.7,19.8,31.7,19.8,31.8L19.8,31.8z"/>
	<g class="st4">
		<path class="st5" d="M35.9,21.1c0,0.9-0.8,1.7-1.7,1.7c-0.9,0-1.7-0.8-1.7-1.7c0-0.9,0.8-1.7,1.7-1.7
			C35.1,19.4,35.9,20.2,35.9,21.1z"/>
		<path class="st5" d="M50.6,34.3c0,0.6-0.5,1.2-1.2,1.2c-0.6,0-1.2-0.5-1.2-1.2c0-0.6,0.5-1.2,1.2-1.2
			C50.1,33.1,50.6,33.6,50.6,34.3z"/>
		<path class="st5" d="M43.2,19.7c0,0.9-0.8,1.7-1.7,1.7c-0.9,0-1.7-0.8-1.7-1.7c0-0.9,0.8-1.7,1.7-1.7C42.5,18,43.2,18.8,43.2,19.7
			z"/>
		<path class="st5" d="M38.2,30.4c0,0.6-0.5,1.1-1.1,1.1c-0.6,0-1.1-0.5-1.1-1.1c0-0.6,0.5-1.1,1.1-1.1
			C37.7,29.3,38.2,29.8,38.2,30.4z"/>
		<path class="st5" d="M37.2,25.4c0,0.3-0.3,0.6-0.6,0.6c-0.3,0-0.6-0.3-0.6-0.6c0-0.3,0.3-0.6,0.6-0.6
			C36.9,24.8,37.2,25.1,37.2,25.4z"/>
		<path class="st5" d="M49,18.5c0,0.5-0.4,0.9-0.9,0.9c-0.5,0-0.9-0.4-0.9-0.9c0-0.5,0.4-0.9,0.9-0.9C48.6,17.6,49,18,49,18.5z"/>
		<path class="st5" d="M53.4,29.5c0,0.4-0.3,0.7-0.7,0.7c-0.4,0-0.7-0.3-0.7-0.7c0-0.4,0.3-0.7,0.7-0.7
			C53.1,28.8,53.4,29.1,53.4,29.5z"/>
		<path class="st5" d="M49.8,42.9c0,0.6-0.5,1.1-1.1,1.1c-0.6,0-1.1-0.5-1.1-1.1c0-0.6,0.5-1.1,1.1-1.1
			C49.3,41.8,49.8,42.3,49.8,42.9z"/>
		<path class="st5" d="M27.1,30.9c0,0.4-0.3,0.7-0.7,0.7c-0.4,0-0.7-0.3-0.7-0.7c0-0.4,0.3-0.7,0.7-0.7
			C26.8,30.3,27.1,30.6,27.1,30.9z"/>
		<path class="st5" d="M44,46.5c0,0.4-0.3,0.7-0.7,0.7c-0.4,0-0.7-0.3-0.7-0.7c0-0.4,0.3-0.7,0.7-0.7C43.7,45.8,44,46.1,44,46.5z"/>
		<path class="st5" d="M53.3,36.2c0,0.4-0.3,0.7-0.7,0.7c-0.4,0-0.7-0.3-0.7-0.7c0-0.4,0.3-0.7,0.7-0.7C53,35.6,53.3,35.9,53.3,36.2
			z"/>
		<path class="st5" d="M54,22.3c0,0.4-0.3,0.7-0.7,0.7c-0.4,0-0.7-0.3-0.7-0.7c0-0.4,0.3-0.7,0.7-0.7C53.7,21.7,54,22,54,22.3z"/>
		<path class="st5" d="M41.6,15.5c0,0.4-0.3,0.7-0.7,0.7c-0.4,0-0.7-0.3-0.7-0.7c0-0.4,0.3-0.7,0.7-0.7
			C41.3,14.8,41.6,15.1,41.6,15.5z"/>
		<path class="st5" d="M39.4,38.5c0,0.5-0.4,1-1,1c-0.5,0-1-0.4-1-1c0-0.5,0.4-1,1-1C39,37.6,39.4,38,39.4,38.5z"/>
		<path class="st5" d="M30.8,27.9c0,0.4-0.3,0.7-0.7,0.7c-0.4,0-0.7-0.3-0.7-0.7c0-0.4,0.3-0.7,0.7-0.7
			C30.4,27.2,30.8,27.5,30.8,27.9z"/>
		<path class="st5" d="M28,25.1c0,0.2-0.1,0.3-0.3,0.3c-0.2,0-0.3-0.1-0.3-0.3c0-0.2,0.1-0.3,0.3-0.3C27.8,24.8,28,25,28,25.1z"/>
		<path class="st5" d="M31.2,36.3c0,0.6-0.5,1.1-1.1,1.1c-0.6,0-1.1-0.5-1.1-1.1c0-0.6,0.5-1.1,1.1-1.1
			C30.7,35.2,31.2,35.7,31.2,36.3z"/>
		<path class="st5" d="M43.1,27.4c0,0.4-0.3,0.7-0.7,0.7c-0.4,0-0.7-0.3-0.7-0.7c0-0.4,0.3-0.7,0.7-0.7C42.7,26.6,43.1,27,43.1,27.4
			z"/>
		<path class="st5" d="M49.8,22.8c0,0.4-0.3,0.7-0.7,0.7c-0.4,0-0.7-0.3-0.7-0.7c0-0.4,0.3-0.7,0.7-0.7
			C49.4,22.1,49.8,22.4,49.8,22.8z"/>
		<path class="st5" d="M43.9,35.7c0,0.4-0.3,0.7-0.7,0.7c-0.4,0-0.7-0.3-0.7-0.7c0-0.4,0.3-0.7,0.7-0.7C43.6,35,43.9,35.3,43.9,35.7
			z"/>
		<path class="st5" d="M34.6,35.1c0,0.3-0.2,0.5-0.5,0.5c-0.3,0-0.5-0.2-0.5-0.5c0-0.3,0.2-0.5,0.5-0.5
			C34.4,34.6,34.6,34.8,34.6,35.1z"/>
		<path class="st5" d="M42.5,22.7c0,0.3-0.2,0.5-0.5,0.5c-0.3,0-0.5-0.2-0.5-0.5c0-0.3,0.2-0.5,0.5-0.5
			C42.3,22.2,42.5,22.4,42.5,22.7z"/>
		<path class="st5" d="M47.5,29.8c0,0.3-0.2,0.5-0.5,0.5c-0.3,0-0.5-0.2-0.5-0.5c0-0.3,0.2-0.5,0.5-0.5
			C47.3,29.3,47.5,29.5,47.5,29.8z"/>
		<path class="st5" d="M46.5,40.3c0,0.3-0.2,0.5-0.5,0.5s-0.5-0.2-0.5-0.5c0-0.3,0.2-0.5,0.5-0.5S46.5,40,46.5,40.3z"/>
	</g>
</g>
</svg>
