<svg xmlns="http://www.w3.org/2000/svg" xmlns:xlink="http://www.w3.org/1999/xlink" viewBox="0 0 137.45 107.03"><defs><style>.cls-1{isolation:isolate;}.cls-10,.cls-12,.cls-13,.cls-14,.cls-15,.cls-16,.cls-18,.cls-19,.cls-2,.cls-20,.cls-21,.cls-22,.cls-24,.cls-25,.cls-26,.cls-27,.cls-28,.cls-30,.cls-31,.cls-32,.cls-33,.cls-34,.cls-36,.cls-37,.cls-38,.cls-39,.cls-40,.cls-42,.cls-43,.cls-44,.cls-45,.cls-46,.cls-48,.cls-49,.cls-50,.cls-51,.cls-6,.cls-7,.cls-9{opacity:0.5;}.cls-2{fill:url(#radial-gradient);}.cls-3{fill:url(#radial-gradient-2);}.cls-4,.cls-5,.cls-52,.cls-53,.cls-54,.cls-55,.cls-56{opacity:0.25;}.cls-12,.cls-13,.cls-18,.cls-19,.cls-24,.cls-25,.cls-30,.cls-31,.cls-36,.cls-37,.cls-4,.cls-42,.cls-43,.cls-48,.cls-49,.cls-5,.cls-52,.cls-53,.cls-54{mix-blend-mode:screen;}.cls-4{fill:url(#radial-gradient-3);}.cls-5{fill:url(#radial-gradient-4);}.cls-14,.cls-15,.cls-20,.cls-21,.cls-26,.cls-27,.cls-32,.cls-33,.cls-38,.cls-39,.cls-44,.cls-45,.cls-50,.cls-51,.cls-55,.cls-56,.cls-6,.cls-7,.cls-9{mix-blend-mode:multiply;}.cls-6{fill:url(#radial-gradient-5);}.cls-7{fill:url(#radial-gradient-6);}.cls-8{fill:url(#radial-gradient-7);}.cls-9{fill:url(#radial-gradient-8);}.cls-10{fill:url(#radial-gradient-9);}.cls-11{fill:url(#radial-gradient-10);}.cls-12{fill:url(#radial-gradient-11);}.cls-13{fill:url(#radial-gradient-12);}.cls-14{fill:url(#radial-gradient-13);}.cls-15{fill:url(#radial-gradient-14);}.cls-16{fill:url(#radial-gradient-15);}.cls-17{fill:url(#radial-gradient-16);}.cls-18{fill:url(#radial-gradient-17);}.cls-19{fill:url(#radial-gradient-18);}.cls-20{fill:url(#radial-gradient-19);}.cls-21{fill:url(#radial-gradient-20);}.cls-22{fill:url(#radial-gradient-21);}.cls-23{fill:url(#radial-gradient-22);}.cls-24{fill:url(#radial-gradient-23);}.cls-25{fill:url(#radial-gradient-24);}.cls-26{fill:url(#radial-gradient-25);}.cls-27{fill:url(#radial-gradient-26);}.cls-28{fill:url(#radial-gradient-27);}.cls-29{fill:url(#radial-gradient-28);}.cls-30{fill:url(#radial-gradient-29);}.cls-31{fill:url(#radial-gradient-30);}.cls-32{fill:url(#radial-gradient-31);}.cls-33{fill:url(#radial-gradient-32);}.cls-34{fill:url(#radial-gradient-33);}.cls-35{fill:url(#radial-gradient-34);}.cls-36{fill:url(#radial-gradient-35);}.cls-37{fill:url(#radial-gradient-36);}.cls-38{fill:url(#radial-gradient-37);}.cls-39{fill:url(#radial-gradient-38);}.cls-40{fill:url(#radial-gradient-39);}.cls-41{fill:url(#radial-gradient-40);}.cls-42{fill:url(#radial-gradient-41);}.cls-43{fill:url(#radial-gradient-42);}.cls-44{fill:url(#radial-gradient-43);}.cls-45{fill:url(#radial-gradient-44);}.cls-46{fill:url(#radial-gradient-45);}.cls-47{fill:url(#radial-gradient-46);}.cls-48{fill:url(#radial-gradient-47);}.cls-49{fill:url(#radial-gradient-48);}.cls-50{fill:url(#radial-gradient-49);}.cls-51{fill:url(#radial-gradient-50);}.cls-52{fill:url(#radial-gradient-51);}.cls-53{fill:url(#radial-gradient-52);}.cls-54{fill:url(#radial-gradient-53);}.cls-55{fill:url(#radial-gradient-54);}.cls-56{fill:url(#radial-gradient-55);}</style><radialGradient id="radial-gradient" cx="71.16" cy="54.77" r="53.61" gradientTransform="translate(58.42 -34.01) rotate(45)" gradientUnits="userSpaceOnUse"><stop offset="0.06" stop-color="#3e8def"/><stop offset="0.24" stop-color="#3e8eef" stop-opacity="0.99"/><stop offset="0.37" stop-color="#3f91ef" stop-opacity="0.95"/><stop offset="0.48" stop-color="#4097ef" stop-opacity="0.88"/><stop offset="0.58" stop-color="#429fef" stop-opacity="0.79"/><stop offset="0.68" stop-color="#45a9ef" stop-opacity="0.67"/><stop offset="0.77" stop-color="#48b5ef" stop-opacity="0.52"/><stop offset="0.86" stop-color="#4bc4ee" stop-opacity="0.35"/><stop offset="0.95" stop-color="#4fd5ee" stop-opacity="0.15"/><stop offset="1" stop-color="#52e1ee" stop-opacity="0"/></radialGradient><radialGradient id="radial-gradient-2" cx="55.6" cy="32.18" r="86.65" gradientTransform="translate(58.42 -34.01) rotate(45)" gradientUnits="userSpaceOnUse"><stop offset="0.08" stop-color="#ffe22d"/><stop offset="0.53" stop-color="#ff007e"/><stop offset="1" stop-color="#fd8413"/></radialGradient><radialGradient id="radial-gradient-3" cx="61.22" cy="23.69" r="65.62" gradientUnits="userSpaceOnUse"><stop offset="0" stop-color="#52e1ee"/><stop offset="0.94" stop-color="#3e8def"/></radialGradient><radialGradient id="radial-gradient-4" cx="-272.81" cy="92.32" r="65.63" gradientTransform="translate(249.42 -175.48) rotate(-27.07)" xlink:href="#radial-gradient-3"/><radialGradient id="radial-gradient-5" cx="96.13" cy="54.1" r="165.78" xlink:href="#radial-gradient-3"/><radialGradient id="radial-gradient-6" cx="-429.62" cy="79.96" r="165.77" gradientTransform="matrix(0.73, -0.69, 0.69, 0.73, 345.58, -318.07)" xlink:href="#radial-gradient-3"/><radialGradient id="radial-gradient-7" cx="69.77" cy="52.34" r="54.64" gradientUnits="userSpaceOnUse"><stop offset="0.02" stop-color="#842ba7"/><stop offset="0.35" stop-color="#8129a4"/><stop offset="0.62" stop-color="#77229a"/><stop offset="0.86" stop-color="#671689"/><stop offset="1" stop-color="#5b0d7c"/><stop offset="1" stop-color="#5d0e7e"/></radialGradient><radialGradient id="radial-gradient-8" cx="69.56" cy="51.95" r="51.59" xlink:href="#radial-gradient-7"/><radialGradient id="radial-gradient-9" cx="21.43" cy="86.7" r="11.89" gradientTransform="translate(67.33 10.3) rotate(45)" gradientUnits="userSpaceOnUse"><stop offset="0.06" stop-color="#fcb900"/><stop offset="0.24" stop-color="#fcb900" stop-opacity="0.99"/><stop offset="0.36" stop-color="#fcb800" stop-opacity="0.95"/><stop offset="0.47" stop-color="#fcb701" stop-opacity="0.89"/><stop offset="0.57" stop-color="#fdb501" stop-opacity="0.8"/><stop offset="0.67" stop-color="#fdb302" stop-opacity="0.69"/><stop offset="0.76" stop-color="#fdb003" stop-opacity="0.55"/><stop offset="0.85" stop-color="#fead04" stop-opacity="0.38"/><stop offset="0.93" stop-color="#feaa06" stop-opacity="0.19"/><stop offset="1" stop-color="#ffa607" stop-opacity="0"/></radialGradient><radialGradient id="radial-gradient-10" cx="17.98" cy="81.69" r="19.23" gradientUnits="userSpaceOnUse"><stop offset="0" stop-color="#faca66"/><stop offset="0.34" stop-color="#ffa607"/><stop offset="0.94" stop-color="#fcb900"/></radialGradient><radialGradient id="radial-gradient-11" cx="19.23" cy="79.81" r="14.56" gradientUnits="userSpaceOnUse"><stop offset="0" stop-color="#ffa607"/><stop offset="0.94" stop-color="#fcb900"/></radialGradient><radialGradient id="radial-gradient-12" cx="-324.4" cy="122.69" r="14.56" gradientTransform="translate(249.42 -175.48) rotate(-27.07)" xlink:href="#radial-gradient-11"/><radialGradient id="radial-gradient-13" cx="26.97" cy="86.55" r="36.78" xlink:href="#radial-gradient-11"/><radialGradient id="radial-gradient-14" cx="-507.98" cy="69.95" r="36.78" gradientTransform="matrix(0.73, -0.69, 0.69, 0.73, 345.58, -318.07)" xlink:href="#radial-gradient-11"/><radialGradient id="radial-gradient-15" cx="116.77" cy="45.01" r="9.88" gradientTransform="translate(65.82 -69.33) rotate(45)" xlink:href="#radial-gradient"/><radialGradient id="radial-gradient-16" cx="113.9" cy="40.85" r="15.96" gradientTransform="translate(65.82 -69.33) rotate(45)" gradientUnits="userSpaceOnUse"><stop offset="0" stop-color="#cae1ee"/><stop offset="0.34" stop-color="#52e1ee"/><stop offset="0.94" stop-color="#3e8def"/></radialGradient><radialGradient id="radial-gradient-17" cx="114.94" cy="39.29" r="12.09" xlink:href="#radial-gradient-3"/><radialGradient id="radial-gradient-18" cx="-220.19" cy="130.15" r="12.09" gradientTransform="translate(249.42 -175.48) rotate(-27.07)" xlink:href="#radial-gradient-3"/><radialGradient id="radial-gradient-19" cx="121.37" cy="44.89" r="30.54" xlink:href="#radial-gradient-3"/><radialGradient id="radial-gradient-20" cx="-411.13" cy="105.42" r="30.54" gradientTransform="matrix(0.73, -0.69, 0.69, 0.73, 345.58, -318.07)" xlink:href="#radial-gradient-3"/><radialGradient id="radial-gradient-21" cx="134.07" cy="25.96" r="3.15" gradientTransform="matrix(1, 0, 0, 1, 0, 0)" xlink:href="#radial-gradient-9"/><radialGradient id="radial-gradient-22" cx="133.16" cy="24.63" r="5.09" xlink:href="#radial-gradient-10"/><radialGradient id="radial-gradient-23" cx="133.49" cy="24.13" r="3.85" xlink:href="#radial-gradient-11"/><radialGradient id="radial-gradient-24" cx="-194.94" cy="125.02" r="3.85" gradientTransform="translate(249.42 -175.48) rotate(-27.07)" xlink:href="#radial-gradient-11"/><radialGradient id="radial-gradient-25" cx="135.54" cy="25.92" r="9.73" xlink:href="#radial-gradient-11"/><radialGradient id="radial-gradient-26" cx="-388.73" cy="103.7" r="9.73" gradientTransform="matrix(0.73, -0.69, 0.69, 0.73, 345.58, -318.07)" xlink:href="#radial-gradient-11"/><radialGradient id="radial-gradient-27" cx="92.21" cy="54.58" r="3.15" gradientTransform="matrix(1, 0, 0, 1, 0, 0)" xlink:href="#radial-gradient"/><radialGradient id="radial-gradient-28" cx="91.3" cy="53.25" r="5.09" gradientTransform="matrix(1, 0, 0, 1, 0, 0)" xlink:href="#radial-gradient-16"/><radialGradient id="radial-gradient-29" cx="91.63" cy="52.75" r="3.85" xlink:href="#radial-gradient-3"/><radialGradient id="radial-gradient-30" cx="-245.24" cy="131.46" r="3.85" gradientTransform="translate(249.42 -175.48) rotate(-27.07)" xlink:href="#radial-gradient-3"/><radialGradient id="radial-gradient-31" cx="93.68" cy="54.54" r="9.73" xlink:href="#radial-gradient-3"/><radialGradient id="radial-gradient-32" cx="-438.79" cy="95.63" r="9.73" gradientTransform="matrix(0.73, -0.69, 0.69, 0.73, 345.58, -318.07)" xlink:href="#radial-gradient-3"/><radialGradient id="radial-gradient-33" cx="39.51" cy="84.06" r="3.15" gradientTransform="matrix(1, 0, 0, 1, 0, 0)" xlink:href="#radial-gradient"/><radialGradient id="radial-gradient-34" cx="38.6" cy="82.74" r="5.09" gradientTransform="matrix(1, 0, 0, 1, 0, 0)" xlink:href="#radial-gradient-16"/><radialGradient id="radial-gradient-35" cx="38.93" cy="82.24" r="3.85" xlink:href="#radial-gradient-3"/><radialGradient id="radial-gradient-36" cx="-305.59" cy="133.73" r="3.85" gradientTransform="translate(249.42 -175.48) rotate(-27.07)" xlink:href="#radial-gradient-3"/><radialGradient id="radial-gradient-37" cx="40.98" cy="84.02" r="9.73" xlink:href="#radial-gradient-3"/><radialGradient id="radial-gradient-38" cx="-497.31" cy="80.71" r="9.73" gradientTransform="matrix(0.73, -0.69, 0.69, 0.73, 345.58, -318.07)" xlink:href="#radial-gradient-3"/><radialGradient id="radial-gradient-39" cx="46.82" cy="75.92" r="3.15" gradientTransform="matrix(1, 0, 0, 1, 0, 0)" xlink:href="#radial-gradient-9"/><radialGradient id="radial-gradient-40" cx="45.9" cy="74.59" r="5.09" xlink:href="#radial-gradient-10"/><radialGradient id="radial-gradient-41" cx="46.23" cy="74.09" r="3.85" xlink:href="#radial-gradient-11"/><radialGradient id="radial-gradient-42" cx="-295.38" cy="129.79" r="3.85" gradientTransform="translate(249.42 -175.48) rotate(-27.07)" xlink:href="#radial-gradient-11"/><radialGradient id="radial-gradient-43" cx="48.28" cy="75.88" r="9.73" xlink:href="#radial-gradient-11"/><radialGradient id="radial-gradient-44" cx="-486.4" cy="79.83" r="9.73" gradientTransform="matrix(0.73, -0.69, 0.69, 0.73, 345.58, -318.07)" xlink:href="#radial-gradient-11"/><radialGradient id="radial-gradient-45" cx="3.19" cy="85.42" r="3.15" gradientTransform="matrix(1, 0, 0, 1, 0, 0)" xlink:href="#radial-gradient"/><radialGradient id="radial-gradient-46" cx="2.28" cy="84.1" r="5.09" gradientTransform="matrix(1, 0, 0, 1, 0, 0)" xlink:href="#radial-gradient-16"/><radialGradient id="radial-gradient-47" cx="2.61" cy="83.6" r="3.85" xlink:href="#radial-gradient-3"/><radialGradient id="radial-gradient-48" cx="-338.55" cy="118.41" r="3.85" gradientTransform="translate(249.42 -175.48) rotate(-27.07)" xlink:href="#radial-gradient-3"/><radialGradient id="radial-gradient-49" cx="4.66" cy="85.39" r="9.73" xlink:href="#radial-gradient-3"/><radialGradient id="radial-gradient-50" cx="-524.58" cy="56.69" r="9.73" gradientTransform="matrix(0.73, -0.69, 0.69, 0.73, 345.58, -318.07)" xlink:href="#radial-gradient-3"/><radialGradient id="radial-gradient-51" cx="51.1" cy="32.74" r="29.69" gradientTransform="matrix(1, 0, 0, 1, 0, 0)" xlink:href="#radial-gradient-2"/><radialGradient id="radial-gradient-52" cx="82.34" cy="37.2" r="35.59" gradientTransform="translate(115.52 -40.3) rotate(80.81)" xlink:href="#radial-gradient-2"/><radialGradient id="radial-gradient-53" cx="82.34" cy="37.2" r="35.59" gradientTransform="matrix(1, 0, 0, 1, 0, 0)" xlink:href="#radial-gradient-2"/><radialGradient id="radial-gradient-54" cx="74.39" cy="76.96" r="10.29" gradientTransform="translate(135.01 -13.51) rotate(76.1)" xlink:href="#radial-gradient-3"/><radialGradient id="radial-gradient-55" cx="92.06" cy="75.04" r="8.53" xlink:href="#radial-gradient-3"/></defs><title>Asset 3</title><g class="cls-1"><g id="Layer_2" data-name="Layer 2"><g id="BACKGROUND1"><circle class="cls-2" cx="70.26" cy="53.51" r="53.51" transform="translate(-17.26 65.35) rotate(-45)"/><circle class="cls-3" cx="70.26" cy="53.51" r="43.38" transform="translate(-17.26 65.35) rotate(-45)"/><path class="cls-4" d="M31.3,57.94a43.38,43.38,0,0,1,71.93-32.66A43.37,43.37,0,1,0,42,86.48,43.23,43.23,0,0,1,31.3,57.94Z"/><path class="cls-5" d="M37.48,75A43.37,43.37,0,0,1,86.66,13.17,43.37,43.37,0,1,0,60,95.52,43.17,43.17,0,0,1,37.48,75Z"/><path class="cls-6" d="M89.57,14.66a36.09,36.09,0,1,1-59,21.24,43.38,43.38,0,1,0,59-21.24Z"/><path class="cls-7" d="M57.21,11.72A36.07,36.07,0,1,1,33,72.59a35.57,35.57,0,0,1-3.88-4.87,43.38,43.38,0,1,0,28.12-56Z"/><path class="cls-8" d="M136.75,19.88c-2.67-5.52-11.63-6.28-27.4-2.34-3.53.88-7.31,2-11.26,3.27a21.76,21.76,0,0,1,2.74,2.42,34,34,0,0,1,3.37,3.32c1.81-.54,3.58-1.06,5.29-1.51,15.83-4.17,20-2.35,20.64-1.95-.09.76-1.24,5.15-14.32,15C105.28,46,90.66,54.64,74.64,62.4S42.79,76.29,30.05,79.65C14.22,83.82,10.07,82,9.41,81.6c.09-.76,1.24-5.15,14.32-15,1.43-1.08,3-2.17,4.53-3.27a24.16,24.16,0,0,1-1.24-8c-3.28,2.2-6.34,4.38-9.09,6.51C5.07,71.78.12,79.29,2.79,84.81,4.35,88,8,89.62,14,89.62a69.44,69.44,0,0,0,16.23-2.47C43.68,83.78,60.6,77.33,77.83,69s32.78-17.64,43.79-26.14C134.47,32.91,139.42,25.4,136.75,19.88Z"/><path class="cls-9" d="M79,63.76c51.5-24.57,59.07-40.36,53.63-44.24-5.19-3.71-20.57.18-31.27,4.22a37.25,37.25,0,0,1,2.81,2.81c1.81-.54,3.58-1.06,5.29-1.51,15.83-4.17,20-2.35,20.64-1.95-.09.76-1.24,5.15-14.32,15C105.28,46,90.66,54.64,74.64,62.4S42.79,76.29,30.05,79.65C14.22,83.82,10.07,82,9.41,81.6c.09-.76,1.24-5.15,14.32-15,1.43-1.08,3-2.17,4.53-3.27a25.54,25.54,0,0,1-1.08-5C21.37,62.48,1.05,77.61,5.62,82.7,11,88.62,27.53,88.32,79,63.76Z"/><circle class="cls-10" cx="21.23" cy="86.42" r="11.87" transform="translate(-54.89 40.33) rotate(-45)"/><circle class="cls-11" cx="21.23" cy="86.42" r="9.62"/><path class="cls-12" d="M12.59,87.4a9.62,9.62,0,0,1,16-7.24A9.62,9.62,0,1,0,15,93.74,9.61,9.61,0,0,1,12.59,87.4Z"/><path class="cls-13" d="M14,91.19A9.62,9.62,0,0,1,24.87,77.47,9.62,9.62,0,1,0,19,95.74,9.54,9.54,0,0,1,14,91.19Z"/><path class="cls-14" d="M25.51,77.8a8,8,0,1,1-13.19,6.09,7.87,7.87,0,0,1,.12-1.38,9.49,9.49,0,0,0-.83,3.91,9.63,9.63,0,1,0,13.9-8.62Z"/><path class="cls-15" d="M18.34,77.15A8,8,0,1,1,13,90.65a7.28,7.28,0,0,1-.86-1.08A9.43,9.43,0,0,0,14.19,93a9.62,9.62,0,1,0,4.15-15.83Z"/><circle class="cls-16" cx="116.6" cy="44.78" r="9.86" transform="translate(2.49 95.57) rotate(-45)"/><circle class="cls-17" cx="116.6" cy="44.78" r="7.99" transform="translate(2.49 95.57) rotate(-45)"/><path class="cls-18" d="M109.43,45.6a8,8,0,0,1,13.24-6A8,8,0,1,0,111.4,50.86,8,8,0,0,1,109.43,45.6Z"/><path class="cls-19" d="M110.56,48.74a8,8,0,0,1,9.06-11.39,8,8,0,1,0-4.9,15.17A8,8,0,0,1,110.56,48.74Z"/><path class="cls-20" d="M120.16,37.63a6.65,6.65,0,1,1-11,5,6.12,6.12,0,0,1,.1-1.14,8,8,0,1,0,10.86-3.91Z"/><path class="cls-21" d="M114.2,37.08a6.65,6.65,0,1,1-4.47,11.22,7.37,7.37,0,0,1-.71-.9,8,8,0,1,0,5.18-10.32Z"/><circle class="cls-22" cx="134.02" cy="25.88" r="3.14"/><circle class="cls-23" cx="134.02" cy="25.88" r="2.55"/><path class="cls-24" d="M131.73,26.14a2.55,2.55,0,0,1,2.55-2.54,2.52,2.52,0,0,1,1.67.63,2.5,2.5,0,0,0-1.91-.87,2.54,2.54,0,0,0-1.68,4.46A2.55,2.55,0,0,1,131.73,26.14Z"/><path class="cls-25" d="M132.09,27.14A2.54,2.54,0,0,1,135,23.52a2.5,2.5,0,0,0-2.1.09,2.55,2.55,0,0,0,.54,4.74A2.52,2.52,0,0,1,132.09,27.14Z"/><path class="cls-26" d="M135.15,23.6a2.12,2.12,0,1,1-3.49,1.61,2.19,2.19,0,0,1,0-.36A2.54,2.54,0,0,0,134,28.43a2.55,2.55,0,0,0,1.13-4.83Z"/><path class="cls-27" d="M133.25,23.43A2.12,2.12,0,1,1,131.83,27a2,2,0,0,1-.23-.28,2.73,2.73,0,0,0,.55.9,2.55,2.55,0,0,0,3.7-3.51A2.57,2.57,0,0,0,133.25,23.43Z"/><path class="cls-28" d="M95.3,54.5a3.14,3.14,0,1,1-3.14-3.14A3.14,3.14,0,0,1,95.3,54.5Z"/><path class="cls-29" d="M94.71,54.5A2.55,2.55,0,1,1,92.16,52,2.55,2.55,0,0,1,94.71,54.5Z"/><path class="cls-30" d="M89.87,54.76a2.55,2.55,0,0,1,4.23-1.91,2.55,2.55,0,1,0-3.6,3.59A2.55,2.55,0,0,1,89.87,54.76Z"/><path class="cls-31" d="M90.24,55.76a2.54,2.54,0,0,1,2.88-3.62A2.54,2.54,0,1,0,91.56,57,2.5,2.5,0,0,1,90.24,55.76Z"/><path class="cls-32" d="M93.29,52.22a2.12,2.12,0,1,1-3.49,1.61,2.19,2.19,0,0,1,0-.36,2.55,2.55,0,1,0,3.46-1.25Z"/><path class="cls-33" d="M91.39,52.05A2.12,2.12,0,1,1,90,55.62a3.11,3.11,0,0,1-.23-.28,2.6,2.6,0,0,0,.56.9A2.55,2.55,0,0,0,94,52.73,2.57,2.57,0,0,0,91.39,52.05Z"/><path class="cls-34" d="M42.6,84a3.14,3.14,0,1,1-3.14-3.14A3.15,3.15,0,0,1,42.6,84Z"/><path class="cls-35" d="M42,84a2.55,2.55,0,1,1-2.55-2.55A2.55,2.55,0,0,1,42,84Z"/><path class="cls-36" d="M37.17,84.25a2.55,2.55,0,0,1,4.23-1.92A2.55,2.55,0,0,0,36.93,84a2.53,2.53,0,0,0,.87,1.91A2.52,2.52,0,0,1,37.17,84.25Z"/><path class="cls-37" d="M37.54,85.25a2.55,2.55,0,0,1,1.1-3.43,2.59,2.59,0,0,1,1.78-.2,2.55,2.55,0,0,0-3.21,3.52,2.51,2.51,0,0,0,1.65,1.31A2.53,2.53,0,0,1,37.54,85.25Z"/><path class="cls-38" d="M40.59,81.71a2.09,2.09,0,0,1,.75,1.61,2.12,2.12,0,0,1-4.24,0,2.1,2.1,0,0,1,0-.36,2.5,2.5,0,0,0-.22,1,2.55,2.55,0,1,0,3.68-2.28Z"/><path class="cls-39" d="M38.69,81.54a2.07,2.07,0,0,1,1.65.65,2.12,2.12,0,1,1-3.07,2.92,2.09,2.09,0,0,1-.23-.29,2.43,2.43,0,0,0,.56.9,2.54,2.54,0,1,0,1.09-4.18Z"/><path class="cls-40" d="M49.9,75.84a3.14,3.14,0,1,1-3.14-3.14A3.13,3.13,0,0,1,49.9,75.84Z"/><path class="cls-41" d="M49.31,75.84a2.55,2.55,0,1,1-2.55-2.54A2.55,2.55,0,0,1,49.31,75.84Z"/><path class="cls-42" d="M44.48,76.1a2.54,2.54,0,0,1,4.22-1.92,2.55,2.55,0,1,0-3.59,3.6A2.51,2.51,0,0,1,44.48,76.1Z"/><path class="cls-43" d="M44.84,77.1a2.55,2.55,0,0,1,2.89-3.63,2.55,2.55,0,1,0-1.57,4.84A2.55,2.55,0,0,1,44.84,77.1Z"/><path class="cls-44" d="M47.9,73.56a2.12,2.12,0,1,1-3.5,1.61,1.47,1.47,0,0,1,0-.36,2.35,2.35,0,0,0-.22,1,2.55,2.55,0,1,0,3.68-2.28Z"/><path class="cls-45" d="M46,73.39A2.12,2.12,0,1,1,44.57,77a1.93,1.93,0,0,1-.22-.28,2.57,2.57,0,0,0,.55.9,2.55,2.55,0,1,0,3.69-3.51A2.52,2.52,0,0,0,46,73.39Z"/><circle class="cls-46" cx="3.14" cy="85.35" r="3.14"/><circle class="cls-47" cx="3.14" cy="85.35" r="2.55"/><path class="cls-48" d="M.85,85.61a2.55,2.55,0,0,1,4.23-1.92,2.55,2.55,0,1,0-3.6,3.6A2.57,2.57,0,0,1,.85,85.61Z"/><path class="cls-49" d="M1.22,86.61A2.54,2.54,0,0,1,4.1,83,2.55,2.55,0,0,0,.89,86.51a2.57,2.57,0,0,0,1.65,1.31A2.55,2.55,0,0,1,1.22,86.61Z"/><path class="cls-50" d="M4.27,83.07A2.12,2.12,0,1,1,.78,84.68a2.19,2.19,0,0,1,0-.36,2.5,2.5,0,0,0-.22,1,2.55,2.55,0,1,0,3.68-2.28Z"/><path class="cls-51" d="M2.37,82.9A2.12,2.12,0,1,1,1,86.47a3.25,3.25,0,0,1-.23-.29A2.55,2.55,0,1,0,2.37,82.9Z"/><circle class="cls-52" cx="56.12" cy="40.05" r="14.87"/><circle class="cls-53" cx="81.43" cy="47.7" r="5.74" transform="translate(21.33 120.47) rotate(-80.81)"/><path class="cls-54" d="M90.17,37.8a2.66,2.66,0,1,1-2.66-2.66A2.66,2.66,0,0,1,90.17,37.8Z"/><circle class="cls-55" cx="76.14" cy="79.5" r="5.15" transform="translate(-19.32 134.31) rotate(-76.1)"/><path class="cls-56" d="M97.77,77.14a4.27,4.27,0,1,1-4.27-4.27A4.27,4.27,0,0,1,97.77,77.14Z"/></g></g></g></svg>