<svg xmlns="http://www.w3.org/2000/svg" xmlns:xlink="http://www.w3.org/1999/xlink" viewBox="0 0 82.69 65.2"><defs><style>.cls-1{isolation:isolate;}.cls-2{fill:url(#radial-gradient);}.cls-3,.cls-30{mix-blend-mode:screen;}.cls-3{fill:url(#radial-gradient-2);}.cls-4{fill:url(#radial-gradient-3);}.cls-10,.cls-11,.cls-12,.cls-13,.cls-14,.cls-15,.cls-17,.cls-19,.cls-21,.cls-23,.cls-25,.cls-27,.cls-29,.cls-32,.cls-5,.cls-6,.cls-7,.cls-8,.cls-9{mix-blend-mode:multiply;}.cls-5{fill:url(#radial-gradient-4);}.cls-6{fill:url(#radial-gradient-5);}.cls-7{fill:url(#radial-gradient-6);}.cls-10,.cls-11,.cls-12,.cls-13,.cls-14,.cls-15,.cls-17,.cls-19,.cls-21,.cls-23,.cls-25,.cls-27,.cls-29,.cls-9{opacity:0.5;}.cls-9{fill:url(#radial-gradient-7);}.cls-10{fill:url(#radial-gradient-8);}.cls-11{fill:url(#radial-gradient-9);}.cls-12{fill:url(#radial-gradient-10);}.cls-13{fill:url(#radial-gradient-11);}.cls-14{fill:url(#radial-gradient-12);}.cls-15{fill:url(#radial-gradient-13);}.cls-16{fill:url(#radial-gradient-14);}.cls-17{fill:url(#radial-gradient-15);}.cls-18{fill:url(#radial-gradient-16);}.cls-19{fill:url(#radial-gradient-17);}.cls-20{fill:url(#radial-gradient-18);}.cls-21{fill:url(#radial-gradient-19);}.cls-22{fill:url(#radial-gradient-20);}.cls-23{fill:url(#radial-gradient-21);}.cls-24{fill:url(#radial-gradient-22);}.cls-25{fill:url(#radial-gradient-23);}.cls-26{fill:url(#radial-gradient-24);}.cls-27{fill:url(#radial-gradient-25);}.cls-28{fill:url(#radial-gradient-26);}.cls-29{fill:url(#radial-gradient-27);}.cls-30{fill:url(#radial-gradient-28);}.cls-31{fill:url(#radial-gradient-29);}.cls-32{fill:url(#radial-gradient-30);}.cls-33{fill:url(#radial-gradient-31);}</style><radialGradient id="radial-gradient" cx="251.96" cy="229.76" r="33.5" gradientTransform="translate(-58.71 -300.39) rotate(29.73)" gradientUnits="userSpaceOnUse"><stop offset="0.08" stop-color="#ffe22d"/><stop offset="0.53" stop-color="#ff007e" stop-opacity="0.47"/><stop offset="1" stop-color="#fd8413" stop-opacity="0"/></radialGradient><radialGradient id="radial-gradient-2" cx="251.56" cy="229.21" r="20.88" xlink:href="#radial-gradient"/><radialGradient id="radial-gradient-3" cx="256.07" cy="184.8" r="94.07" gradientTransform="translate(-58.71 -300.39) rotate(29.73)" gradientUnits="userSpaceOnUse"><stop offset="0" stop-color="#cae1ee"/><stop offset="0.34" stop-color="#52e1ee"/><stop offset="0.94" stop-color="#842ba7"/></radialGradient><radialGradient id="radial-gradient-4" cx="256.07" cy="211.52" r="64.81" xlink:href="#radial-gradient-3"/><radialGradient id="radial-gradient-5" cx="256.24" cy="212.49" r="63.79" xlink:href="#radial-gradient-3"/><radialGradient id="radial-gradient-6" cx="255.03" cy="197.1" r="46.81" xlink:href="#radial-gradient-3"/><radialGradient id="radial-gradient-7" cx="218.45" cy="224.52" r="9.12" xlink:href="#radial-gradient-3"/><radialGradient id="radial-gradient-8" cx="229.6" cy="226.95" r="9.12" xlink:href="#radial-gradient-3"/><radialGradient id="radial-gradient-9" cx="240.76" cy="228.18" r="9.12" xlink:href="#radial-gradient-3"/><radialGradient id="radial-gradient-10" cx="251.92" cy="228.66" r="9.12" xlink:href="#radial-gradient-3"/><radialGradient id="radial-gradient-11" cx="263.08" cy="228.28" r="9.12" xlink:href="#radial-gradient-3"/><radialGradient id="radial-gradient-12" cx="274.24" cy="227.04" r="9.12" xlink:href="#radial-gradient-3"/><radialGradient id="radial-gradient-13" cx="285.42" cy="224.52" r="9.12" xlink:href="#radial-gradient-3"/><radialGradient id="radial-gradient-14" cx="220.33" cy="224.05" r="9.12" gradientTransform="translate(-59.64 -301.79) rotate(29.98)" gradientUnits="userSpaceOnUse"><stop offset="0.06" stop-color="#ff7f9a"/><stop offset="0.53" stop-color="#ff3a9c"/><stop offset="0.99" stop-color="#d10059"/></radialGradient><radialGradient id="radial-gradient-15" cx="220.45" cy="224.4" r="8.55" xlink:href="#radial-gradient-14"/><radialGradient id="radial-gradient-16" cx="231.49" cy="226.43" r="9.12" xlink:href="#radial-gradient-14"/><radialGradient id="radial-gradient-17" cx="231.61" cy="226.78" r="8.55" xlink:href="#radial-gradient-14"/><radialGradient id="radial-gradient-18" cx="242.65" cy="227.61" r="9.12" xlink:href="#radial-gradient-14"/><radialGradient id="radial-gradient-19" cx="242.77" cy="227.96" r="8.55" xlink:href="#radial-gradient-14"/><radialGradient id="radial-gradient-20" cx="253.82" cy="228.04" r="9.12" xlink:href="#radial-gradient-14"/><radialGradient id="radial-gradient-21" cx="253.93" cy="228.39" r="8.55" xlink:href="#radial-gradient-14"/><radialGradient id="radial-gradient-22" cx="264.98" cy="227.61" r="9.12" xlink:href="#radial-gradient-14"/><radialGradient id="radial-gradient-23" cx="265.1" cy="227.96" r="8.55" xlink:href="#radial-gradient-14"/><radialGradient id="radial-gradient-24" cx="276.14" cy="226.32" r="9.12" xlink:href="#radial-gradient-14"/><radialGradient id="radial-gradient-25" cx="276.26" cy="226.67" r="8.55" xlink:href="#radial-gradient-14"/><radialGradient id="radial-gradient-26" cx="287.3" cy="223.75" r="9.12" xlink:href="#radial-gradient-14"/><radialGradient id="radial-gradient-27" cx="287.42" cy="224.1" r="8.55" xlink:href="#radial-gradient-14"/><radialGradient id="radial-gradient-28" cx="247.11" cy="209.27" r="14.61" xlink:href="#radial-gradient-3"/><radialGradient id="radial-gradient-29" cx="227.58" cy="219.72" r="53.06" xlink:href="#radial-gradient-3"/><radialGradient id="radial-gradient-30" cx="255.03" cy="203.04" r="39.32" xlink:href="#radial-gradient-3"/><radialGradient id="radial-gradient-31" cx="281" cy="219.31" r="37.34" xlink:href="#radial-gradient-3"/></defs><title>Asset 2</title><g class="cls-1"><g id="Layer_2" data-name="Layer 2"><g id="BACKGROUND1"><path class="cls-2" d="M18,6.22c-1.49.9-18,14.33-18,14.33s5,20,29.07,35,43.91,8,43.91,8l5-24.21Z"/><path class="cls-3" d="M28.51,12.27c-.93.57-11.2,8.93-11.2,8.93S20.45,33.67,35.43,43,62.8,48,62.8,48l3.13-15.08Z"/><path class="cls-4" d="M67.45,22.25a5.74,5.74,0,0,0,.36-.5C70.29,17.4,65.73,10.13,57.62,5.5S40.93.64,38.45,5a4,4,0,0,0-.26.56C26.48.39,17.48-1.52,15.87,1.3,13.62,5.25,26.69,17,45.08,27.46S80.19,43.27,82.44,39.32C84.05,36.5,77.84,29.72,67.45,22.25Z"/><path class="cls-5" d="M81.79,35.65c-6.45-.22-19.43-5.19-33.37-13.16C34.11,14.32,23,5.42,19.87,0c-2.06-.07-3.45.34-4,1.29C13.62,5.25,26.69,17,45.08,27.46S80.19,43.27,82.44,39.32C82.94,38.45,82.69,37.19,81.79,35.65Z"/><path class="cls-6" d="M82,36.09a2.15,2.15,0,0,1-.25,1.17c-2.25,4-19-1.36-37.37-11.86C29.72,17,18.42,7.84,15.63,2.48c.27,4.76,12.63,15.38,29.45,25C63.46,38,80.19,43.27,82.44,39.32,82.89,38.53,82.72,37.43,82,36.09Z"/><path class="cls-7" d="M38.08,6s1.54,5.67,14.53,12.73C60.39,23,65.76,23.88,68.89,23.3l-1.44-1.05a5.74,5.74,0,0,0,.36-.5c1.72-3,0-7.47-3.89-11.46C62.56,12,60,12.93,55.2,10.5c-7-3.54-9.8-6.45-10.65-8.6-2.82.19-5,1.2-6.1,3.08a4,4,0,0,0-.26.56L38,5.44A3.16,3.16,0,0,0,38.08,6Z"/><g class="cls-8"><path class="cls-9" d="M21.93,5.93l0-.15c0-.11,0-.22.05-.33V5.29A1.84,1.84,0,0,0,22,5s0-.09,0-.14a2.32,2.32,0,0,0-.16-.44h0A2.12,2.12,0,0,0,18,4.25a2,2,0,0,0-.26.72h0c0,.09,0,.18,0,.26v.1a1.93,1.93,0,0,0,0,.24.51.51,0,0,1,0,.13c0,.07,0,.14.05.22a1.88,1.88,0,0,0,.12.3.83.83,0,0,0,.07.13,2.12,2.12,0,0,0,.12.2l.09.11a1.54,1.54,0,0,0,.17.19l.09.09a1.81,1.81,0,0,0,.32.22h0A2.13,2.13,0,0,0,20,7.44a2.76,2.76,0,0,0,.4-.06A2.26,2.26,0,0,0,21.17,7a2.07,2.07,0,0,0,.57-.64h0A2.88,2.88,0,0,0,21.93,5.93Z"/><path class="cls-10" d="M30.44,13.42c0-.11,0-.22,0-.33v-.17a1.73,1.73,0,0,0,0-.32s0-.1,0-.14a2.18,2.18,0,0,0-.16-.45h0a2.13,2.13,0,0,0-3.76-.13,2.07,2.07,0,0,0-.26.73h0a2.28,2.28,0,0,0,0,.26V13a1.93,1.93,0,0,0,0,.24.5.5,0,0,1,0,.12c0,.08,0,.15.05.22a2.83,2.83,0,0,0,.11.31l.08.13a1,1,0,0,0,.12.19l.09.12.17.19.09.08a1.86,1.86,0,0,0,.32.23,2.15,2.15,0,0,0,1.62.21,2.08,2.08,0,0,0,.73-.36,1.89,1.89,0,0,0,.56-.63,2.07,2.07,0,0,0,.2-.46Z"/><path class="cls-11" d="M39.52,20a1.86,1.86,0,0,0,0-.33,1,1,0,0,0,0-.17,1.73,1.73,0,0,0,0-.32.58.58,0,0,0,0-.14,1.7,1.7,0,0,0-.15-.45h0a2.14,2.14,0,0,0-3.77-.13,2.18,2.18,0,0,0-.25.73h0a2.28,2.28,0,0,0,0,.26v.1a1.93,1.93,0,0,0,0,.24s0,.08,0,.12a1.42,1.42,0,0,0,0,.22,2.83,2.83,0,0,0,.11.31s.05.08.07.13l.12.19.09.12c.06.06.11.13.18.19l.09.08a2.26,2.26,0,0,0,.31.23h0a2,2,0,0,0,.8.27,2.28,2.28,0,0,0,.82-.06,2.08,2.08,0,0,0,.73-.36,2.13,2.13,0,0,0,.56-.63,1.66,1.66,0,0,0,.19-.46C39.5,20.11,39.5,20.07,39.52,20Z"/><path class="cls-12" d="M49,26c0-.11,0-.22.05-.33v-.17a1.66,1.66,0,0,0,0-.32s0-.1,0-.15a2.32,2.32,0,0,0-.16-.44h0a2.13,2.13,0,0,0-3.76-.13,2,2,0,0,0-.26.73h0a2.28,2.28,0,0,0,0,.26v.1a1.93,1.93,0,0,0,0,.24.5.5,0,0,1,0,.12c0,.08,0,.15.05.22a2.83,2.83,0,0,0,.11.31l.08.13a1,1,0,0,0,.12.19l.09.12a1.45,1.45,0,0,0,.17.18l.09.09a2.62,2.62,0,0,0,.32.23h0l0,0a2.15,2.15,0,0,0,2,.05,2.13,2.13,0,0,0,.91-.85,2.07,2.07,0,0,0,.2-.46Z"/><path class="cls-13" d="M58.85,31.17c0-.11,0-.22,0-.33v-.16a1.84,1.84,0,0,0,0-.33c0-.05,0-.09,0-.14a2.32,2.32,0,0,0-.16-.44h0a2.07,2.07,0,0,0-.85-.91,2.13,2.13,0,0,0-2.91.78,2,2,0,0,0-.26.72h0c0,.09,0,.18,0,.26v.11a1.77,1.77,0,0,0,0,.23l0,.13a1.7,1.7,0,0,0,0,.22,1.88,1.88,0,0,0,.12.3.54.54,0,0,0,.07.13,1.32,1.32,0,0,0,.12.2l.09.11a1.54,1.54,0,0,0,.17.19l.09.09a1.81,1.81,0,0,0,.32.22,2.12,2.12,0,0,0,2,.07,2.14,2.14,0,0,0,.92-.85,2.53,2.53,0,0,0,.19-.45Z"/><path class="cls-14" d="M69.16,35.63c0-.11,0-.22,0-.33v-.16a1.84,1.84,0,0,0,0-.33s0-.09,0-.14a3.26,3.26,0,0,0-.15-.44h0a2.15,2.15,0,0,0-.86-.91,2.13,2.13,0,0,0-2.91.78,2,2,0,0,0-.26.73h0c0,.08,0,.17,0,.26v.1c0,.08,0,.16,0,.24l0,.12a1.7,1.7,0,0,0,0,.22,1.88,1.88,0,0,0,.12.3.54.54,0,0,0,.07.13,1.32,1.32,0,0,0,.12.2l.09.12.17.18.09.09A2.62,2.62,0,0,0,66,37h0l.36.16.13,0a2.56,2.56,0,0,0,.73.08,2.14,2.14,0,0,0,1.7-1.07,2.53,2.53,0,0,0,.19-.45Z"/><path class="cls-15" d="M80.08,39.13a.8.8,0,0,0,0-.15,1.26,1.26,0,0,0,0-.33.86.86,0,0,0,0-.16,1.84,1.84,0,0,0,0-.33l0-.14a1.76,1.76,0,0,0-.15-.44h0a2.21,2.21,0,0,0-.85-.92,2.12,2.12,0,0,0-3.17,1.51h0a2.46,2.46,0,0,0,0,.26s0,.07,0,.1a1.94,1.94,0,0,0,0,.24.69.69,0,0,0,0,.13,2.25,2.25,0,0,0,0,.22,1.82,1.82,0,0,0,.11.3l.07.13.12.2.09.11a1.62,1.62,0,0,0,.18.19.34.34,0,0,0,.09.08,1.39,1.39,0,0,0,.31.23,2.12,2.12,0,0,0,1.62.22,2.21,2.21,0,0,0,.74-.36,2.17,2.17,0,0,0,.56-.64A2.88,2.88,0,0,0,80.08,39.13Z"/></g><path class="cls-16" d="M21.33,5.84a2.13,2.13,0,1,1-.78-2.91A2.14,2.14,0,0,1,21.33,5.84Z"/><path class="cls-17" d="M21.4,3.84a2,2,0,0,1-.26.72,2.12,2.12,0,0,1-2.91.79,2.15,2.15,0,0,1-.85-.92,2.13,2.13,0,1,0,4-.59Z"/><path class="cls-18" d="M29.81,13.48A2.14,2.14,0,1,1,29,10.56,2.14,2.14,0,0,1,29.81,13.48Z"/><path class="cls-19" d="M29.88,11.47a2,2,0,0,1-.26.73,2.13,2.13,0,0,1-2.91.78,2.07,2.07,0,0,1-.85-.91,2.13,2.13,0,0,0,3.95,1.41A2.14,2.14,0,0,0,29.88,11.47Z"/><path class="cls-20" d="M38.88,20.08a2.13,2.13,0,1,1-.78-2.92A2.13,2.13,0,0,1,38.88,20.08Z"/><path class="cls-21" d="M39,18.07a2.18,2.18,0,0,1-.25.73,2.14,2.14,0,0,1-3.77-.13,2.13,2.13,0,1,0,4-.6Z"/><path class="cls-22" d="M48.34,26a2.14,2.14,0,1,1-.79-2.92A2.14,2.14,0,0,1,48.34,26Z"/><path class="cls-23" d="M48.41,24a2,2,0,0,1-.26.73,2.13,2.13,0,0,1-2.91.78,2.07,2.07,0,0,1-.85-.91,2.13,2.13,0,1,0,4-.6Z"/><path class="cls-24" d="M58.22,31.23a2.13,2.13,0,1,1-.78-2.91A2.13,2.13,0,0,1,58.22,31.23Z"/><path class="cls-25" d="M58.29,29.23A2.07,2.07,0,0,1,58,30a2.13,2.13,0,0,1-3.76-.13,2.13,2.13,0,1,0,4-.6Z"/><path class="cls-26" d="M68.53,35.7a2.14,2.14,0,1,1-.78-2.92A2.14,2.14,0,0,1,68.53,35.7Z"/><path class="cls-27" d="M68.6,33.69a2.18,2.18,0,0,1-.25.73,2.14,2.14,0,0,1-3.77-.13,2.13,2.13,0,1,0,4-.6Z"/><path class="cls-28" d="M79.48,39a2.13,2.13,0,1,1-.78-2.91A2.13,2.13,0,0,1,79.48,39Z"/><path class="cls-29" d="M79.55,37a2.12,2.12,0,0,1-3.17,1.51,2.21,2.21,0,0,1-.85-.92,2.13,2.13,0,1,0,4-.59Z"/><path class="cls-30" d="M58.12,9.27c-.51.89-2.78.54-5.07-.77s-3.74-3.09-3.24-4,2.78-.55,5.07.76S58.63,8.39,58.12,9.27Z"/><path class="cls-31" d="M32,4.14c-.24-.14-9.69-4.23-8.68-1.8S36.61,15.8,53.51,24c0,0-26.08-17.95-21.75-19.62"/><path class="cls-32" d="M67.81,21.75a6.5,6.5,0,0,0,.07-5.62c-2.78,4-14.85.46-22.79-5.71C40,6.49,39.72,4.26,40.47,3a5.22,5.22,0,0,0-2,2,4,4,0,0,0-.26.56L38,5.44a3.16,3.16,0,0,0,.11.6s1.54,5.67,14.53,12.73C60.39,23,65.76,23.88,68.89,23.3l-1.44-1.05A5.74,5.74,0,0,0,67.81,21.75Z"/><path class="cls-33" d="M69,24.82s7.56,5.45,10.15,8.7l.23.31C81.7,37,66.89,30.85,56,25,56,25,66.3,28.37,68.15,28S69,24.82,69,24.82Z"/></g></g></g></svg>