<?xml version="1.0" encoding="utf-8"?>
<!-- Generator: Adobe Illustrator 22.1.0, SVG Export Plug-In . SVG Version: 6.00 Build 0)  -->
<svg version="1.1" id="Layer_1" xmlns="http://www.w3.org/2000/svg" xmlns:xlink="http://www.w3.org/1999/xlink" x="0px" y="0px"
	 viewBox="0 0 24 24" style="enable-background:new 0 0 24 24;" xml:space="preserve">
<style type="text/css">
	.st0{fill-rule:evenodd;clip-rule:evenodd;fill:#181616;}
</style>
<path class="st0" d="M12,4.1c-4.5,0-8.1,3.6-8.1,8.1c0,3.6,2.3,6.6,5.5,7.7C9.8,20,10,19.7,10,19.5c0-0.2,0-0.7,0-1.4
	C7.7,18.6,7.2,17,7.2,17c-0.4-0.9-0.9-1.2-0.9-1.2c-0.7-0.5,0.1-0.5,0.1-0.5c0.8,0.1,1.2,0.8,1.2,0.8c0.7,1.2,1.9,0.9,2.4,0.7
	c0.1-0.5,0.3-0.9,0.5-1.1c-1.8-0.2-3.7-0.9-3.7-4c0-0.9,0.3-1.6,0.8-2.2c-0.1-0.2-0.4-1,0.1-2.1c0,0,0.7-0.2,2.2,0.8
	C10.6,8.1,11.3,8,12,8c0.7,0,1.4,0.1,2,0.3c1.5-1,2.2-0.8,2.2-0.8c0.4,1.1,0.2,1.9,0.1,2.1c0.5,0.6,0.8,1.3,0.8,2.2
	c0,3.1-1.9,3.8-3.7,4c0.3,0.3,0.6,0.7,0.6,1.5c0,1.1,0,2,0,2.2c0,0.2,0.1,0.5,0.6,0.4c3.2-1.1,5.5-4.1,5.5-7.7
	C20.1,7.7,16.5,4.1,12,4.1z"/>
</svg>
