<svg width="24" height="24" viewBox="0 0 24 24" fill="none" xmlns="http://www.w3.org/2000/svg">
<path fill-rule="evenodd" clip-rule="evenodd" d="M5.34199 11.9998C5.34199 8.32281 8.32281 5.34199 11.9998 5.34199C15.6769 5.34199 18.6577 8.32281 18.6577 11.9998C18.6577 15.6769 15.6769 18.6577 11.9998 18.6577C8.32281 18.6577 5.34199 15.6769 5.34199 11.9998ZM11.9998 4.04199C7.60484 4.04199 4.04199 7.60484 4.04199 11.9998C4.04199 16.3948 7.60484 19.9577 11.9998 19.9577C16.3948 19.9577 19.9577 16.3948 19.9577 11.9998C19.9577 7.60484 16.3948 4.04199 11.9998 4.04199ZM8.79412 8.03821C8.53881 7.78585 8.12726 7.78825 7.8749 8.04357C7.62254 8.29889 7.62494 8.71044 7.88026 8.96279L14.5377 15.5431C14.793 15.7954 15.2046 15.793 15.4569 15.5377C15.7093 15.2824 15.7069 14.8708 15.4516 14.6185L8.79412 8.03821Z" fill="#657D9E"/>
</svg>
