<svg width="24" height="24" viewBox="0 0 24 24" fill="none" xmlns="http://www.w3.org/2000/svg">
<path fill-rule="evenodd" clip-rule="evenodd" d="M6.6501 10.9996C6.6501 8.59717 8.59766 6.64961 11.0001 6.64961C13.4025 6.64961 15.3501 8.59717 15.3501 10.9996C15.3501 13.402 13.4025 15.3496 11.0001 15.3496C8.59766 15.3496 6.6501 13.402 6.6501 10.9996ZM11.0001 5.34961C7.87969 5.34961 5.3501 7.8792 5.3501 10.9996C5.3501 14.12 7.87969 16.6496 11.0001 16.6496C12.3373 16.6496 13.5659 16.1851 14.5335 15.4087C14.5619 15.5161 14.6181 15.6176 14.7024 15.7019L17.7831 18.7826C18.037 19.0365 18.4485 19.0365 18.7024 18.7826C18.9562 18.5288 18.9562 18.1172 18.7024 17.8634L15.6216 14.7826C15.5405 14.7015 15.4433 14.6464 15.3404 14.6171C16.1581 13.637 16.6501 12.3758 16.6501 10.9996C16.6501 7.8792 14.1205 5.34961 11.0001 5.34961Z" fill="#657D9E"/>
</svg>
