<svg width="24" height="24" viewBox="0 0 24 24" fill="none" xmlns="http://www.w3.org/2000/svg">
<path fill-rule="evenodd" clip-rule="evenodd" d="M15.6815 8.42857C15.6815 10.3257 14.1097 11.8571 12.1479 11.8571C10.1861 11.8571 8.60242 10.3257 8.60242 8.42857C8.60242 6.53143 10.1861 5 12.1479 5C14.1097 5 15.6815 6.53143 15.6815 8.42857ZM5.5 16.3329C5.5 14.6094 7.58544 13.4809 9.58547 12.951L11.9997 15.3281L14.4141 12.9509C16.4142 13.4807 18.5 14.6093 18.5 16.3329V17.3996C18.5 18.2832 17.7837 18.9996 16.9 18.9996H7.1C6.21634 18.9996 5.5 18.2832 5.5 17.3996V16.3329Z" fill="#657D9E"/>
</svg>
